<svg xmlns="http://www.w3.org/2000/svg" width="348.609" height="345.039" viewBox="0 0 348.609 345.039"><g transform="translate(938.975 -330.623)"><g transform="translate(-938.975 330.623)"><path d="M293.231,414.214l291.382-30.766L575.6,464.03,284.214,494.8l9.016-80.583Z" transform="translate(-243.034 -186.585)" fill="#b09e96" fill-rule="evenodd"/><path d="M414.423,491.107l-40.247-53.985-82.9-100.5-54.226-12.051s16.145-33.982,47.235-61.7,55.913-36.15,55.913-36.15l-2.048-9.52,2.53-5.784-9.855-15.929s16.314-19.572,38.486-28.128,35.988-9.554,35.988-9.554,7.774-6.832,16.45-5.869,12.4,9.026,12.4,9.026a343.146,343.146,0,0,1,32.038,18.283c15.665,10.242,23.352,18.213,27.45,26.406s2.849,18.177,2.849,18.177,24.342,7.47,49.165,17.593,40.006,22.654,40.006,22.654l-32.408,76.057-47.664,68.946-87.182,87.8-3.976-5.781Z" transform="translate(-237.045 -151.849)" fill="#b09e96" fill-rule="evenodd"/><path d="M303.65,337.788l-34.365-8.974s22.131-41.845,63.219-65.464,119.623-23.478,161.1-14.684,75.159,34.3,78.548,35.485-40.476,98.707-75.341,133.784-71.935,67.911-71.935,67.911L303.65,337.788Z" transform="translate(-241.138 -168.78)" fill="#e6e6e6" fill-rule="evenodd"/><path d="M303.117,341.368l-33.832-8.974s2.459-4.72,7.252-11.878c.139-.129,27-24.334,40.589-33.3s31.958-15.8,31.958-15.8-15.782,12.542-19.727,20.7l-3.944,8.158s98.171,122.04,93.21,127.053c-3.327,3.363,18.752,12.5,45.87-5.275,10.447-6.847,32.62-35.051,50.162-59.556l9.691-2.058c-7.552,18.047-17.151,39.621-24.782,52.261-3.458,4.45,12.555-10.429-6.278,8.817s-70.819,67.911-70.819,67.911L303.117,341.368Zm217.995,11.975c6.947-9.994,9.978-14.286,13.107-19.694,0,0-.826,4.739-5.97,17.34l-7.138,2.354Z" transform="translate(-241.138 -172.36)" fill="gray" fill-rule="evenodd"/><path d="M359.863,363.74c-1.632-1.225-39.768-52-39.768-52s30.354-38.772,98.407-43.493,130.207,24.321,130.207,24.321L524.88,353.9l-165.017,9.84Z" transform="translate(-254.597 -168.681)" fill="#515169" fill-rule="evenodd"/><path d="M521.763,276.428c6.533,1.525,12.629,3.165,18.185,4.8.966,2.482,3.884,8.034,4.295,14.267.51,7.75-2.141,11.523-2.141,11.523s-3.671-12.543-10.911-20.9c-7.012-8.1-9.292-9.605-9.428-9.692Zm21.5,5.8a262.679,262.679,0,0,1,31.047,11.438l-22.46,57.812c-1.624,1.771-2.27,3.024-1.37,3.524l.518-1.334c-1.6-4.788-10.7-19.407-10.7-19.407s10.363-8.377,11.586-27.548c.814-12.745-4.727-20.816-8.623-24.486Z" transform="translate(-279.226 -169.799)" fill="#9494b0" fill-rule="evenodd"/><path d="M359.863,365.439c-1.632-1.225-39.768-52.005-39.768-52.005s8.318-10.619,26-21.418l16.225-4.792s-3.939,3.739-4.282,23.045a56.132,56.132,0,0,0,9.2,32.129s-5.627-18.158-4.4-30.292S366.7,296.1,366.7,296.1s-3.142,3.522,5.464,14.559S387.5,324.34,387.5,324.34s99.041-4.815,98.813-6.3-6.939-23.068-6.939-23.068l7.24-13.867s4.9,6.526,5.711,14.377a45.8,45.8,0,0,1-.612,13.868l5.2,32.11s-61.438,13.868-64.238,16.836c-.873.925-9.5,2.424-20.952,4.049l-51.863,3.093Z" transform="translate(-249.794 -170.521)" fill="#272738" fill-rule="evenodd"/><path d="M415.472,375.127l20.394,15.3s14.581-6.322,19.884-16.01,6.016-11.727,6.016-11.727l-.612-18.354s19.274-36.4,21.925-55.164,9.176-47.518,9.176-47.518l-6.73-2.448s-45.783,5.71-71.581,2.753-33.038-3.773-33.751-3.467S375.5,261.33,375.5,261.33s-4.487,23.045,9.788,53.635,32.224,38.951,30.182,60.162Z" transform="translate(-257.278 -164.873)" fill="#b5ab9a" fill-rule="evenodd"/><path d="M436.562,456.011l-63.629-77.9V328.958l15.3-6.73L414.739,362.2s3.581,27.108,4.487,25.9,7.138,11.217,21.617,6.118,20.681-23.443,20.681-23.443-1.236-20.788-.491-20.4,15.245-31.246,15.245-31.246l8.413-16.985,13.867,11.829,15.908,18.354,16.315,12.236s-28.544,83.69-94.22,111.452Z" transform="translate(-257.556 -174.49)" fill="#4d4942" fill-rule="evenodd"/><path d="M434.689,456.476l-61.756-75.612V331.715l15.152.183s-.261,8.688,1.778,32.344.36,24.034,2.039,23.657-.408-9.585,3.263-21.414l3.671-11.828,10.2,30.59-12.376,24.662,11.458-5.184s22.74,20.24,36.2,20.9,19.425-7.9,19.425-7.9-1.687,10.815-9.38,23.5-15.805,12.931-15.092,14.479c.195.423-1.709.654-4.578.767Zm38.738-65.313s-11.9-15.123-12.249-24.084l-.35-8.962,21.689-34.26s-3.277,6.431-1.034,22.134,1.02,20.8,1.02,20.8a65.731,65.731,0,0,0,2.447-23.249c-1.122-12.135.714-18.457.714-18.457A41.542,41.542,0,0,0,488.62,335.9c2.345,5.3,2.345,5.4,2.345,5.4l-2.753,9.789s8.565-9.28,11.829-12.134L503.3,336.1l13.663,9.381S498.92,375.562,497.7,375.562s-16.314-3.672-24.27,15.6Z" transform="translate(-257.341 -177.364)" fill="#262420" fill-rule="evenodd"/><path d="M466.585,380.94l0-.011,9.352,16.664a57.964,57.964,0,0,1-26.512,27.94c-19.764,10.146-36.2-13.562-36.2-13.562l5.1-14.581s9.89,12.644,28.861,7.7c18.651-4.863,19.377-23.519,19.4-24.147Z" transform="translate(-262.259 -184.45)" fill="#24201a" fill-rule="evenodd"/><path d="M475.86,404.356c-.517.9-1.119,1.884-1.815,2.937-.551.768-.993,1.448-1.057,1.547l-.01.012-10.708-9.545-.012.01a25.1,25.1,0,0,0,3.328-4.752c2.91,2.741,8.514,8.033,10.274,9.79Zm-5.642,8.1-.008.009c-.332.346-11.539,11.916-22.889,10.208-11.522-1.733-14.989-9.993-14.989-9.993a57.8,57.8,0,0,0,12.39-4.936,35.793,35.793,0,0,0,4.893-.927,26.274,26.274,0,0,0,8.871-4.094l-.016.012,11.748,9.721Z" transform="translate(-264.797 -186.173)" fill="#968e81" fill-rule="evenodd"/><path d="M485.106,312.019c3.265-8.2,6.014-16.459,6.9-22.738,2.652-18.763,9.177-47.518,9.177-47.518l-6.73-2.448s-8,1-19.2,1.944c-2.2.945-3.685,1.571-3.685,1.571s4.691,3.874,4.894,12.032a100.461,100.461,0,0,1-.1,11.012s1.121-6.628-5.1-12.339-15.7-4.792-20.9-1.529l-5.2,3.263s8.089-1.22,12.662.562l4.571,1.783-11.217,2.856s15.3,3.7,15.805,4.079,3.875,10.2-2.855,21.822-16.315,13.46-16.315,13.46,9.075,7.953,17.539,1.427,9.789-12.134,9.789-12.134-.466,15.736-7.137,25.492l-6.671,9.757s15.575-4.34,23.773-12.354Z" transform="translate(-266.753 -164.488)" fill="#f5f3f0" fill-rule="evenodd"/><path d="M416.117,376.153l19.749,14.812s14.581-6.322,19.884-16.01,6.016-11.727,6.016-11.727l-.612-18.354s2.011-3.8,4.822-9.57a31.375,31.375,0,0,1-14.2,5.693c-13.969,2.244-29.879-3.16-38.852-11.624s-10.6-16.858-10.6-16.858,3.458,9.517,19.366,11.148a28.34,28.34,0,0,0,5.378.054l.5-11.752a20.321,20.321,0,0,1-10.368-8.084,46.323,46.323,0,0,1-6.832-26.613s2.039,0,6.934-1.937,13.256-11.419,13.256-11.419a53.059,53.059,0,0,1-17.029-1.326c-8.259-2.243-10.5-5.506-10.5-5.506s4.793,2.549,14.888,2.345,20.7-8.361,20.7-8.361,0,.1-15.342.06-35.031-8.422-35.031-8.422a22.682,22.682,0,0,0-9.967,4.258c-1.312,6.6-2.78,14.915-2.78,14.915s-4.487,23.045,9.788,53.635c1,2.135,2.011,4.157,3.034,6.087l26.339,26.133s.2.205,10.707,5.916a37.715,37.715,0,0,0,21.413,4.079s-3.262,6.525-15.192,7.953c-7.059.844-14.045-2.595-18.576-5.544a30.167,30.167,0,0,1,2.535,14.592q.282.714.567,1.43Zm17.49-53.883a24.038,24.038,0,0,0,11.337-8.6,40.754,40.754,0,0,1-11.463-.176l.126,8.777Zm-10.174-41.333s13.606-2.692,21.516-5.607,10.283-5.705,10.283-5.705-3.552,14.576-12.119,17.941-16.926.1-19.68-6.628Zm43.879,51.6c2.86-5.981,6.268-13.478,9.209-20.957a151.438,151.438,0,0,1-17.911,11.066c-11.216,6.016-17.436,5.506-17.436,5.506s1.632,3.569,11.522,6.016a21.976,21.976,0,0,0,14.616-1.631Z" transform="translate(-257.107 -165.476)" fill="#665c4a" fill-rule="evenodd"/><path d="M372.445,230.643l.2-16.52s.335-20.522-.815-22.025,22.841-12.032,44.255-17.947,26.1-5.914,26.1-5.914,29.571,16.111,40.583,26.308,22.842,21.21,22.842,21.21l-12.237,15.5s-26.958,3.38-58.327,4.894-64.7-4.754-64.7-4.754l2.091-.752Z" transform="translate(-256.837 -153.93)" fill="#8c2c21" fill-rule="evenodd"/><path d="M372.82,226.789l.136-11.109s.179-10.971-.174-17.456l13.688-5.286s20.937-13.04,37.091-12.428a30.649,30.649,0,0,1,12.544,3.015l-6.807,6.037c-.3.034-.608.071-.918.113-10.6,1.428-32.018,11.013-32.018,11.013a118,118,0,0,0,32.018,8.056c18.559,2.039,25.7,2.039,25.7,2.039s-3.161,2.345-15.5,7.852-40.787,7.851-40.787,7.851,57.763,3.189,57.714,2.7-7.649,3.671-20.549,4.969-57.407-3.491-57.407-3.491c-1.82-.3-3.387-1.758-4.727-3.877Zm67.367-40.76a20.2,20.2,0,0,1,5.324,5.685,26.065,26.065,0,0,0-9.7-2.3c1.427-1.1,3.043-2.363,4.372-3.38Z" transform="translate(-256.632 -155.485)" fill="#4f1812" fill-rule="evenodd"/><path d="M430.149,172.4c15.887-4.161,19.6-4.161,19.6-4.161s29.571,16.111,40.583,26.308,22.842,21.21,22.842,21.21l-12.237,15.5s-3.552.446-9.574,1.085l-15.689-.309,7.092-2.94c7.092-2.938,9.812-7.219,9.812-7.219l-30.489,2.447,7.138-4.384c7.137-4.384,2.447-10.2,2.447-10.2l6.118.51c6.118.51,16.279,2.592,16.279,2.592l-18.217-11.055s-3.058-7.443-15.193-16.825-21.288-11.48-21.413-12.338-9.569-.1-9.382.611l.285-.834Z" transform="translate(-264.876 -153.93)" fill="#f7bdb7" fill-rule="evenodd"/><path d="M375.357,220.413a273.726,273.726,0,0,0,52.984.611c30.77-2.564,41.748-5.4,48.049-6.739-6.8-2.655-20.843-7.2-44.584-10.915-35.907-5.617-63.991-2.608-63.991-2.608s20.218,3.877,38.866,7.381l10.047,8.164c-7.77,1.073-16.532,2.114-24.74,2.71-6.821.5-12.309,1-16.63,1.395Zm103.849,9.41c7.656,1.009,23.577,3.216,53.635,16.023s42.07,22.677,42.07,22.677-25.42,82.044-76.772,138.616c-54.535,60.077-76.423,77.122-76.423,77.122s-62.192-78.126-94.287-117.044l-30.051-36.439-46.085-9.939s23.81-37.493,53.269-59.546,42.419-25.39,49.177-27.5l-.458-7.04c-4.5-1.749-6.611-7.351-2.178-11.6a23.06,23.06,0,0,0-2.348-5.661c-.54-1.016-6.928-12.746-6.721-13,1.465-2.024,15.529-15.245,34.454-22.365,12.722-4.786,26.392-6.271,35.57-7.934,1-1.752,2.478-2.747,6.007-3.389s8,.374,10.231,2.307,1.966,2.491,2.211,3.94c6.732,3.012,18.411,7.552,29.451,14.767,6.031,3.942,34.59,22.268,31.068,38.567-.431,2-3.059,4.463-3.059,4.463s.838-3.919-3.62-5.5c-1.473.821-2.739,2.595-4.248,4.4-.206,1.252-.476,2.458-.9,4.08ZM352.653,247.8c-6.539,2.536-15.578,4.016-42.472,25.33s-39.518,39.52-39.518,39.52l34.1,6.821L422.318,465.715s52.98-45.523,84.675-87.651,54.031-105.442,54.031-105.442-30.61-18.073-54.653-25.577-25.444-6.815-29.9-7.869c-.275.871-.227.7-.227.7a89.02,89.02,0,0,0-2.136,8.871c43.432,8.968,71.56,29,71.56,29s-26.077,66-59.376,107.327-62.389,63.8-62.389,63.8-56.367-61.99-81.241-96.495-31.093-43.333-31.093-43.333l-20.561-3.009s18.667-26.662,63.363-45.6L352.653,247.8ZM478.946,367.914l-15-2.008s-7.622,22.068-22.868,39.922c-8.069,9.45-12.694,13.957-15.26,16.107-1.876,1.281-2.936,1.958-2.936,1.958L388.71,388.928c.316-.83.706-1.861,1.142-3.028,5.213,4.579,19.591,15.532,35.242,12.817,16.085-2.79,23.647-19.956,26.739-26.7,2.094,3.341,3.689,5.659,3.689,5.659s2.361-4.692,4.835-15.443c2.031.111,4.807.27,8.608.5,4.687.281,8.749.606,12.086.918-.641,1.36-1.344,2.791-2.106,4.273Zm-5.069-67.207c.614,3.907.942,6.6,1.11,8.447-2.753,4.715-5.99,10.586-9.233,17.21a111.381,111.381,0,0,0-10.916,35.616c-.233,1.6-.318,2.5-.318,2.5a58.067,58.067,0,0,1-5.918-11.836,89.255,89.255,0,0,1-3.347-12.171,60.206,60.206,0,0,1,1.935-7.088s13.541-18.156,16.349-32.3l1.647-8.294c1.4-2.03,2.282-2.471,3.263-4.32,4.2,2.572,4.67,7.423,5.427,12.234ZM356.508,273.379A215.6,215.6,0,0,0,318.4,297.207s9.2,13.943,20.916,31.225C337.019,323.885,337,323.8,337,323.8l12.415-7.132-2.057-4.614c-.941-2.111,14.027-14.248,15.526-15.693-2.483-4.737-3.47-11.234-5.343-16.711l-1.033-6.269Zm160.42,42.791c10.132-20.734,14.705-34.211,14.705-34.211s-23.76-13.8-58.968-21.266c-.059,1.414-.072,2.841-.027,4.26.4,12.237.2,12.237.2,12.237a41.608,41.608,0,0,1-1.461,4.107l19.027,12.792a23.709,23.709,0,0,1-2.272,6.894l28.794,15.186Zm-140.5-14.816c-1.818-4.412-3.817-10.082-4.235-14.527a22.9,22.9,0,0,1,0-4.008l7.516,6.5a61.2,61.2,0,0,0,4.725,10.745c8.5,15.072,29.08,21.108,29.08,21.108s-6.129,5.8-16.327,3.95c.642,1.652-.349.262,2.77,4.2s17.753,6.921,17.753,6.921-1.4,2.407-7.422,3.41a16.7,16.7,0,0,1-10.833-2.106s2.006,8.627,14.844,13.542,17.252-1.606,17.252-1.606,0,4.716-5.818,10.834-11.735,5.717-11.735,5.717,8.024,5.317,19.257-4.513,5.266-23.422,5.266-23.422l-3.812.452c-3.811.451-8.876-.953-8.876-.953s9.026-3.009,19.458-18.457c4.289-6.352,6.44-10.8,7.487-13.843-6.009,4.042-15.7,9.406-22.963,9.406,0,0,16.751-10.031,23.571-22.469s6.821-23.271,6.821-23.271a54.414,54.414,0,0,1-7.924,7.523l-3.711,2.607s-1.6,6.42-6.719,9.63-7.623,3.31-7.623,3.31,6.819-11.635,9.027-20.362,2.307-11.234,2.307-11.234a15.348,15.348,0,0,1,1.7,3.837,12.981,12.981,0,0,1,.527,2.683s5.066-2.885,6.671-14.521a41.724,41.724,0,0,0-1.732-18.687c-13.866,1.672-33.184,3.2-52.016,2.017-7.8-.49-14.654-1.287-20.6-2.23h0a92.557,92.557,0,0,0,24.924,6.135s-.1.1-14.443,1.806a98.262,98.262,0,0,1-21.857-.042c2.854,3.153,8.035,8.524,12.661,11.45,6.821,4.313,9.529,3.21,9.529,3.21a13.98,13.98,0,0,1-6.419,2.206,3.879,3.879,0,0,1-1.382-.286,23.838,23.838,0,0,1,4.892,7.208s-9.026.4-12.587-.5a21.09,21.09,0,0,1-4.013-1.2,4.5,4.5,0,0,0,1.705,2.056l1.354.953s-4.162.55-6.721-2.308c-.643-.72-1.255-1.433-1.811-2.1.588,5.033,3.09,23.568,2.7,23.106,2.182,6.546,4.086,11.352,7.786,16.12Zm-3.222-24.229c1.215-4.57,3.04-6.152,3.04-6.152s-.126,3.133,1.277,10.112c-1.411-1.277-2.925-2.661-4.317-3.959Zm19.322,101.449a34.951,34.951,0,0,0,18.524,12.62c14.443,3.912,25.456-8.775,31.795-16.651a24.9,24.9,0,0,0,4.887-9.426,59.961,59.961,0,0,1-5.157-11.267c-2.808,15.849-13.64,37.113-32.1,29.691-6.577-2.646-11.2-7.647-14.662-13.609l-.334-.042-1.183,3.55c-.553,1.658-1.159,3.408-1.773,5.134Zm-4.16-10.695a70.417,70.417,0,0,1-2.091,6.764,83.282,83.282,0,0,1-3.456,8.261l-3.465-3.546s-5.315-27.384-9.528-39.02a181.4,181.4,0,0,0-9.629-21.666l6.42-7.825s11.377,21.22,14.844,32.9,5.977,20.773,6.905,24.131Zm82.284-37.9c5.2-2.552,14.614-7.249,22.086-8.987l8.625-2.006-16.468-10.18c-4.064,5.99-10.349,12.75-14.243,21.173ZM363.887,245.215c1.464.82,3.521,1.992,5.992,3.452-1.58-1.362-3.039-2.678-4.23-3.8l-2-1.882.235,2.231Zm34.058,20.414a93.873,93.873,0,0,1,8.925-7.653,9.667,9.667,0,0,1-3.208,1.334c-2.508.2-5.918-2.608-5.918-2.608,1.2.1,3.611-.8,9.429-3.31s16.95-9.328,24.975-8.627,12.137,3.411,12.137,3.411-5.885-1.37-16.205,1.092a53.258,53.258,0,0,1,13.8,1.415s-9.328,13.842-17.152,18.256-11.936,2.808-11.936,2.808l7.222-4.314a35.56,35.56,0,0,1-22.066-1.805Zm61.41-32.737a28.781,28.781,0,0,1,3.079,7.562c1.755,6.52.7,9.479.7,9.479a29.553,29.553,0,0,0,3.01-11.436,43.028,43.028,0,0,0-.158-6.594c-1.877.3-4.106.637-6.633.989Zm17.313-11.925-4.9,3.738-.644.033c-7.823.4-30.291,8.325-66.4,5.416s-47.141-7.423-47.141-7.423,4.614,1.906,40.019,4.614c31.047,2.375,65.56-4.891,79.067-6.378Zm-4.112-15.5c-3.067-3.647-2.928-4.873-15.072-13.731s-36.84-17.936-36.84-17.936-25.7,1.721-34.273,4.7a136.843,136.843,0,0,0-14.143,5.718c10.32-3.07,17.664-5.749,25.136-6.134,4.893-.252,9.8-.625,16.23,1.536a58,58,0,0,0-20.113,5.106c-3.6,1.663-6.766,5.656-10.347,7.156,34.1-2.32,79.14,9.413,89.422,13.591Zm-53,4.906a196.894,196.894,0,0,0,20.579,2.226s-5.784,1.067-14.208,2.366l-6.371-4.592Z" transform="translate(-238.854 -153.214)" fill="#1a0b0b" fill-rule="evenodd"/><path d="M433.432,277.471l13.052-5.4s-2.141,12.235-13.052,5.4Z" transform="translate(-264.688 -168.744)" fill="#f60" fill-rule="evenodd"/><path d="M400.851,274.708l-10.6-4.78s1.448,10.12,10.6,4.78Z" transform="translate(-258.595 -168.438)" fill="#f60" fill-rule="evenodd"/><path d="M301.257,422.273l276.089-29.182-7.3,65.329L293.955,487.6l7.3-65.329Z" transform="translate(-244.271 -187.809)" fill="#1a0b0b" fill-rule="evenodd"/></g><text transform="matrix(0.996, -0.087, 0.087, 0.996, -867.821, 606.422)" fill="#e6e6e6" font-size="38" font-family="Helvetica-Black, Helvetica" font-weight="800"><tspan x="0" y="0">CSGO</tspan><tspan y="0" fill="#8c2c21">HYER</tspan></text></g></svg>