<svg xmlns="http://www.w3.org/2000/svg" xmlns:xlink="http://www.w3.org/1999/xlink" width="905.376" height="603" viewBox="0 0 905.376 603"><defs><clipPath id="a"><path d="M0,0H905.376V603H0Z" transform="translate(5661 1388)" fill="#fff" stroke="#707070" stroke-width="1"/></clipPath></defs><g transform="translate(-5570 -1887)"><g transform="translate(-91 499)" clip-path="url(#a)"><g transform="translate(295.362 1092.255)"><g transform="translate(80.812 -201.614)"><g transform="translate(813.954 426.555)"><g transform="translate(4470.497 105.806)"><circle cx="213.193" cy="213.193" r="213.193" transform="translate(86.577 301.499) rotate(-45)" fill="#33498a"/><g transform="translate(227.869 142.91)"><path d="M501.687,331.893H182.93L247.113,205.64a17.4,17.4,0,0,1,15.513-9.515H420.7a17.4,17.4,0,0,1,15.449,9.391Z" transform="translate(-182.93 -44.243)" fill="#273366"/><g transform="translate(69.019)"><path d="M417.676,135.9v4.629a30.649,30.649,0,0,0-16.21-27.024L342.291,81.9a26.037,26.037,0,0,0-24.041-.257l-63.132,32.015a30.638,30.638,0,0,0-16.781,27.326v-4.629a30.638,30.638,0,0,1,16.782-27.327L318.25,77.01a26.037,26.037,0,0,1,24.045.259l59.174,31.611A30.649,30.649,0,0,1,417.676,135.9Z" transform="translate(-238.338 -74.196)" fill="#fff"/><path d="M417.676,138.37v60.3a17.386,17.386,0,0,1-17.39,17.383H255.731a17.386,17.386,0,0,1-17.393-17.383V138.816a30.638,30.638,0,0,1,16.782-27.327l63.131-32.01a26.037,26.037,0,0,1,24.045.259l59.174,31.611a30.649,30.649,0,0,1,16.207,27.02Z" transform="translate(-238.338 -73.59)" fill="#273366"/></g></g><g transform="translate(147.013 188.699)"><path d="M359.083,358.3V214.777H337.358l-17.384-4.03a54.5,54.5,0,0,0-43.644,4.915l-99.691,65.4c-8.673,5.153-11.506,7.165-19.04,14.751L118.02,346.607Z" transform="translate(-118.021 -87.046)" fill="#1c2340"/><path d="M311.4,358.3V214.777H332.94l17.566-4.03a54.5,54.5,0,0,1,43.644,4.915l101.826,60.49a102.27,102.27,0,0,1,35.531,35.423L552.459,346.6Z" transform="translate(-70.517 -87.046)" fill="#1c2340"/><path d="M21.488,0H62.234A21.488,21.488,0,0,1,83.721,21.488v19H0v-19A21.488,21.488,0,0,1,21.488,0Z" transform="translate(196.966)" fill="none" stroke="#20294a" stroke-miterlimit="10" stroke-width="5.832"/><path d="M274.568,184.431h12.418V135.867H274.568c-3.268,0-5.392,2.453-5.915,5.915,0,0-1.308,5.489-1.308,17.574a126.063,126.063,0,0,0,1.308,19.153C269.256,182.09,271.3,184.431,274.568,184.431Z" transform="translate(-81.339 -104.835)" fill="#20294a"/><path d="M268.835,179.614h9.774V139.1h-9.774c-2.573,0-4.243,2.046-4.658,4.938,0,0-1.03,4.582-1.03,14.663a111.33,111.33,0,0,0,1.03,15.98C264.655,177.661,266.264,179.614,268.835,179.614Z" transform="translate(-82.369 -104.042)" fill="#20294a"/><path d="M350.45,184.431H338.037V135.867H350.45c3.269,0,5.394,2.453,5.919,5.915,0,0,1.308,5.489,1.308,17.574a126.07,126.07,0,0,1-1.308,19.153C355.762,182.09,353.719,184.431,350.45,184.431Z" transform="translate(-63.973 -104.835)" fill="#20294a"/><path d="M355.358,179.614h-9.772V139.1h9.772c2.573,0,4.245,2.046,4.659,4.938,0,0,1.03,4.582,1.03,14.663a111.321,111.321,0,0,1-1.03,15.98C359.539,177.661,357.931,179.614,355.358,179.614Z" transform="translate(-62.118 -104.042)" fill="#20294a"/><rect width="12.133" height="17.335" rx="4.046" transform="translate(200.366 65.363)" fill="#f57a8c"/><rect width="12.133" height="17.335" rx="4.046" transform="translate(270.048 65.363)" fill="#f57a8c"/><rect width="43.086" height="40.193" transform="translate(219.337 87.582)" fill="#ff7d7d"/><path d="M320.244,125.346h-22.09a20.755,20.755,0,0,0-20.4,24.57l9,48.147a21.757,21.757,0,0,0,12.838,16.009l8.609,3.681a30.64,30.64,0,0,0,24.092,0l8.609-3.681a21.757,21.757,0,0,0,12.835-16.008l6.891-36.86c2.287-12.233-4.8-35.856-17.245-35.856Z" transform="translate(-78.87 -107.42)" fill="#ff9191"/><path d="M280.665,150.927l7.324-25.624a13.68,13.68,0,0,1,14.882-9.895l43.53,4.685a15.029,15.029,0,0,1,13.421,14.942v18.185c-2.032,9.283-10.8-1.767-20.161-2.327Z" transform="translate(-78.066 -109.889)" fill="#1c2340"/><path d="M295.4,120.307h-5.1a13,13,0,0,0-12.9,13.08V158.7h13.856Z" transform="translate(-78.87 -108.657)" fill="#1c2340"/><path d="M370.82,153.668v12.837a12.63,12.63,0,0,1-14.062,12.547c-5.365-.612-11.9-1.235-18.96-1.66-3.02-.187-6.143-.342-9.309-.426q-3.627-.109-7.306-.114c-6.289,0-12.3.207-17.808.54-1.66.093-3.269.207-4.832.333-1.8.124-3.528.27-5.189.426-2.792.25-5.376.519-7.71.789a11.052,11.052,0,0,1-2.024.062,12.608,12.608,0,0,1-12.059-12.609V153.668a12.631,12.631,0,0,1,12.628-12.63h74.006a12.632,12.632,0,0,1,12.625,12.63Z" transform="translate(-80.304 -103.565)" fill="#44549c"/><path d="M370.82,153.668v15.255a12.63,12.63,0,0,1-14.062,12.547c-5.365-.612-11.9-1.235-18.96-1.66-3.02-.187-6.143-.342-9.309-.426q-3.627-.109-7.306-.114c-6.289,0-12.3.207-17.808.54-1.66.093-3.269.207-4.832.333-1.8.124-3.528.27-5.189.426-2.792.25-5.376.519-7.71.789a11.056,11.056,0,0,1-2.024.062,12.608,12.608,0,0,1-12.059-12.609V153.668a12.631,12.631,0,0,1,12.628-12.63h74.006a12.632,12.632,0,0,1,12.625,12.63Z" transform="translate(-80.304 -103.565)" fill="#44549c"/><path d="M274.095,171.622v3.885a25.651,25.651,0,0,0,11.153,21.161l16.619,11.385" transform="translate(-79.681 -96.052)" fill="none" stroke="#20294a" stroke-miterlimit="10" stroke-width="4.166"/><path d="M303.716,200.553c0,2.446-2.3,4.429-5.144,4.429s-5.144-1.983-5.144-4.429,2.3-4.428,5.144-4.428S303.716,198.107,303.716,200.553Z" transform="translate(-74.93 -90.032)" fill="#20294a"/><path d="M339.436,139.1,326.568,177.87c-3.02-.187-6.143-.342-9.309-.426L329.982,139.1Z" transform="translate(-69.077 -104.042)" fill="#556ac2"/><path d="M304.1,139.1l-13.128,39.529c-2.792.25-5.376.519-7.71.789a11.055,11.055,0,0,1-2.024.062l13.408-40.38Z" transform="translate(-77.926 -104.042)" fill="#556ac2"/><path d="M310.919,139.1,298.051,177.87c-1.66.093-3.269.207-4.832.333l12.972-39.1Z" transform="translate(-74.983 -104.042)" fill="#fff"/><path d="M315.378,139.1,302.509,177.87c-.726.042-1.432.083-2.138.135L313.285,139.1Z" transform="translate(-73.225 -104.042)" fill="#fff"/><path d="M315.378,139.1,302.509,177.87c-.726.042-1.432.083-2.138.135L313.285,139.1Z" transform="translate(-73.225 -104.042)" fill="#fff"/><rect width="73.703" height="73.703" rx="6.113" transform="translate(242.177 181.701) rotate(45)" fill="none" stroke="#fff" stroke-miterlimit="10" stroke-width="1.666"/><rect width="78.839" height="78.839" transform="translate(202.757 196.243)" fill="#1c2340"/><path d="M370.82,151.727v2.416a12.631,12.631,0,0,0-12.628-12.63H284.184a12.631,12.631,0,0,0-12.63,12.628v-2.414a12.631,12.631,0,0,1,12.628-12.63h74.006a12.632,12.632,0,0,1,12.632,12.63Z" transform="translate(-80.304 -104.042)" fill="#fff"/><path d="M294.1,213.527l1.39,1.255a30.141,30.141,0,0,0,41.695-1.256Z" transform="translate(-74.765 -85.757)" fill="#ff7d7d"/></g><g transform="translate(347.877 385.693)"><path d="M238.83,326.317l66.149-6.862-2.047,17.971-66.149,6.862Z" transform="translate(-227.6 -274.364)" fill="#b09e96" fill-rule="evenodd"/><path d="M237.655,203.337l-9.114-12.225-18.774-22.759-12.28-2.729a49.539,49.539,0,0,1,10.7-13.972c7.041-6.277,12.663-8.186,12.663-8.186l-.464-2.156.573-1.31-2.232-3.607a24.494,24.494,0,0,1,8.716-6.371,31.558,31.558,0,0,1,8.15-2.166,5.543,5.543,0,0,1,3.726-1.333,3.78,3.78,0,0,1,2.808,2.044,77.7,77.7,0,0,1,7.256,4.141c3.547,2.319,5.289,4.125,6.217,5.98a8.187,8.187,0,0,1,.645,4.116s5.513,1.692,11.134,3.984a38.045,38.045,0,0,1,9.06,5.13l-7.34,17.231-10.8,15.614-19.745,19.884-.9-1.309Z" transform="translate(-197.486 -126.508)" fill="#b09e96" fill-rule="evenodd"/><path d="M232.146,223.72l-7.8-2s5.023-9.331,14.35-14.6,27.152-5.236,36.567-3.275,17.06,7.65,17.829,7.915-9.187,22.013-17.1,29.836-16.329,15.145-16.329,15.145l-27.516-33.02Z" transform="translate(-218.068 -184.839)" fill="#e6e6e6" fill-rule="evenodd"/><path d="M232.146,241.721l-7.8-2a31.2,31.2,0,0,1,1.672-2.649,117.114,117.114,0,0,1,9.358-7.426,43.806,43.806,0,0,1,7.368-3.525s-3.638,2.8-4.548,4.616l-.91,1.82s22.634,27.217,21.49,28.335c-.767.75,4.323,2.788,10.576-1.176,2.409-1.527,7.521-7.817,11.565-13.282l2.234-.459a102.383,102.383,0,0,1-5.714,11.655c-.8.992,2.894-2.326-1.447,1.966s-16.329,15.145-16.329,15.145l-27.516-33.02Zm50.26,2.671c1.6-2.229,2.3-3.186,3.022-4.392a22.224,22.224,0,0,1-1.376,3.867Z" transform="translate(-218.068 -202.84)" fill="gray" fill-rule="evenodd"/><path d="M275.545,244.458c-.364-.273-8.868-11.6-8.868-11.6s6.769-8.647,21.947-9.7,29.038,5.424,29.038,5.424l-5.314,13.679-36.8,2.194Z" transform="translate(-250.506 -200.483)" fill="#515169" fill-rule="evenodd"/><path d="M434.689,230.3c1.457.34,2.816.706,4.056,1.071a10,10,0,0,1,.958,3.182,4.218,4.218,0,0,1-.477,2.57,14.449,14.449,0,0,0-2.434-4.665,13.656,13.656,0,0,0-2.1-2.161Zm4.8,1.294a58.566,58.566,0,0,1,6.924,2.551L441.4,247.035c-.362.395-.507.675-.306.786l.116-.3a39.149,39.149,0,0,0-2.386-4.328s2.311-1.868,2.583-6.143a6.781,6.781,0,0,0-1.923-5.461Z" transform="translate(-379.254 -206.041)" fill="#9494b0" fill-rule="evenodd"/><path d="M275.545,253c-.364-.273-8.868-11.6-8.868-11.6a23.154,23.154,0,0,1,5.8-4.776l3.618-1.069s-.878.833-.955,5.139a12.518,12.518,0,0,0,2.051,7.165,21.739,21.739,0,0,1-.982-6.756,8.575,8.575,0,0,1,.864-3.571s-.7.786,1.219,3.249a9.525,9.525,0,0,0,3.421,3.053s22.088-1.074,22.037-1.4-1.547-5.144-1.547-5.144l1.615-3.093a7.3,7.3,0,0,1,1.274,3.207,10.215,10.215,0,0,1-.137,3.093l1.16,7.165s-13.7,3.093-14.33,3.755a22.237,22.237,0,0,1-4.673.9l-11.566.69Z" transform="translate(-250.506 -209.027)" fill="#272738" fill-rule="evenodd"/><path d="M321.343,229.124l4.548,3.411s3.249-1.41,4.435-3.571a26.47,26.47,0,0,0,1.341-2.615l-.137-4.093s4.3-8.118,4.89-12.3,2.046-10.6,2.046-10.6l-1.5-.546s-10.211,1.273-15.963.614-7.368-.841-7.527-.773-1.046,5.094-1.046,5.094-1,5.139,2.183,11.961,7.186,8.687,6.731,13.413Z" transform="translate(-285.452 -181.782)" fill="#b5ab9a" fill-rule="evenodd"/><path d="M324.886,286.034,310.7,268.66V257.7l3.411-1.5,5.915,8.914s.8,6.046,1,5.776,1.592,2.5,4.821,1.365,4.612-5.228,4.612-5.228a42.083,42.083,0,0,1-.109-4.551c.167.083,3.4-6.968,3.4-6.968l1.876-3.788,3.093,2.638,3.547,4.093,3.638,2.729s-6.366,18.662-21.013,24.856Z" transform="translate(-284.238 -222.456)" fill="#4d4942" fill-rule="evenodd"/><path d="M324.468,299.386,310.7,282.524V271.562l3.379.041s-.058,1.938.4,7.213.083,5.36.455,5.276-.091-2.138.727-4.775l.819-2.638,2.274,6.822-2.76,5.5,2.555-1.156s5.071,4.514,8.073,4.665a5,5,0,0,0,4.332-1.762,15.977,15.977,0,0,1-2.092,5.242c-1.716,2.833-3.525,2.884-3.366,3.229.043.094-.382.146-1.021.171Zm8.639-14.566s-2.653-3.372-2.732-5.371l-.078-2,4.837-7.641s-.731,1.434-.231,4.936a14.965,14.965,0,0,1,.227,4.64,14.664,14.664,0,0,0,.546-5.184,12.218,12.218,0,0,1,.159-4.116,9.265,9.265,0,0,0,.66,2.41c.523,1.182.523,1.206.523,1.206l-.614,2.184s1.91-2.069,2.638-2.706l.728-.637,3.047,2.092s-4.025,6.709-4.3,6.709-3.638-.819-5.415,3.479Z" transform="translate(-284.238 -236.32)" fill="#262420" fill-rule="evenodd"/><path d="M356.167,317.36h0l2.083,3.717a12.927,12.927,0,0,1-5.915,6.231c-4.408,2.263-8.073-3.024-8.073-3.024l1.137-3.249a6.173,6.173,0,0,0,6.437,1.717,5.849,5.849,0,0,0,4.326-5.385Z" transform="translate(-309.965 -272.755)" fill="#24201a" fill-rule="evenodd"/><path d="M369.889,330.9c-.115.2-.25.417-.4.655-.122.172-.222.322-.236.345h0l-2.388-2.129h0a5.6,5.6,0,0,0,.742-1.06c.649.612,1.9,1.791,2.291,2.184Zm-1.258,1.807h0c-.074.077-2.573,2.658-5.1,2.277a4.234,4.234,0,0,1-3.342-2.229,12.892,12.892,0,0,0,2.763-1.1,7.982,7.982,0,0,0,1.091-.207,5.859,5.859,0,0,0,1.979-.916h0l2.62,2.166Z" transform="translate(-322.159 -281.461)" fill="#968e81" fill-rule="evenodd"/><path d="M379.779,215.591a24.385,24.385,0,0,0,1.54-5.071c.592-4.184,2.046-10.6,2.046-10.6l-1.5-.546s-1.785.222-4.281.433l-.821.351a3.679,3.679,0,0,1,1.091,2.683,22.42,22.42,0,0,1-.023,2.456,3.241,3.241,0,0,0-1.137-2.749,4.04,4.04,0,0,0-4.665-.341l-1.16.727a7.075,7.075,0,0,1,2.823.125l1.02.4-2.5.637s3.416.826,3.525.91a5.577,5.577,0,0,1-.637,4.866,5.975,5.975,0,0,1-3.638,3s2.024,1.774,3.916.318a5.615,5.615,0,0,0,2.183-2.706,12.545,12.545,0,0,1-1.592,5.685l-1.488,2.176a14.684,14.684,0,0,0,5.3-2.755Z" transform="translate(-330.35 -182.347)" fill="#f5f3f0" fill-rule="evenodd"/><path d="M321.487,231.959l4.4,3.3s3.249-1.41,4.435-3.571a26.479,26.479,0,0,0,1.341-2.615l-.137-4.093s.448-.847,1.076-2.134a7,7,0,0,1-3.166,1.27,10.937,10.937,0,0,1-8.664-2.593,7.8,7.8,0,0,1-2.364-3.76s.771,2.123,4.319,2.486a6.318,6.318,0,0,0,1.2.012l.112-2.621a4.532,4.532,0,0,1-2.312-1.8,10.331,10.331,0,0,1-1.524-5.935,4.975,4.975,0,0,0,1.546-.432,12.676,12.676,0,0,0,2.957-2.547,11.83,11.83,0,0,1-3.8-.3,4.212,4.212,0,0,1-2.342-1.228,7.318,7.318,0,0,0,3.32.523,9.466,9.466,0,0,0,4.616-1.865s0,.022-3.422.013a24.762,24.762,0,0,1-7.813-1.879,5.058,5.058,0,0,0-2.223.95c-.292,1.471-.62,3.327-.62,3.327s-1,5.139,2.183,11.961q.334.714.677,1.357l5.874,5.832s.045.046,2.388,1.32a8.415,8.415,0,0,0,4.775.91s-.727,1.455-3.388,1.774a6.576,6.576,0,0,1-4.142-1.236,6.727,6.727,0,0,1,.566,3.254l.127.319Zm3.9-12.017a5.36,5.36,0,0,0,2.528-1.916,9.088,9.088,0,0,1-2.557-.039l.028,1.957Zm-2.269-9.218a40.927,40.927,0,0,0,4.8-1.25,5.831,5.831,0,0,0,2.294-1.272s-.792,3.249-2.7,4a3.271,3.271,0,0,1-4.389-1.478Zm9.786,11.507c.638-1.333,1.4-3.006,2.054-4.674a33.765,33.765,0,0,1-3.995,2.468,7.932,7.932,0,0,1-3.889,1.228s.364.8,2.569,1.341a4.9,4.9,0,0,0,3.26-.364Z" transform="translate(-285.452 -184.508)" fill="#665c4a" fill-rule="evenodd"/><path d="M309.014,154.079l.045-3.684s.075-4.577-.182-4.915,5.094-2.683,9.87-4a32.084,32.084,0,0,1,5.822-1.319s6.595,3.593,9.051,5.867,5.094,4.73,5.094,4.73l-2.729,3.457s-6.012.75-13.007,1.091a71.674,71.674,0,0,1-14.429-1.061l.467-.167Z" transform="translate(-282.592 -136.971)" fill="#8c2c21" fill-rule="evenodd"/><path d="M310.58,160.693l.03-2.478s.04-2.447-.039-3.893l3.053-1.179s4.665-2.908,8.272-2.772a6.832,6.832,0,0,1,2.8.672l-1.518,1.346-.2.025c-2.365.318-7.141,2.456-7.141,2.456a26.318,26.318,0,0,0,7.141,1.8c4.139.455,5.731.455,5.731.455a22.411,22.411,0,0,1-3.457,1.75c-2.749,1.228-9.1,1.75-9.1,1.75s12.882.711,12.872.6a20.5,20.5,0,0,1-4.582,1.108c-2.877.29-12.8-.779-12.8-.779a1.683,1.683,0,0,1-1.054-.865ZM325.6,151.6a4.505,4.505,0,0,1,1.187,1.268,5.812,5.812,0,0,0-2.166-.514c.318-.245.679-.527.975-.75Z" transform="translate(-284.143 -144.791)" fill="#4f1812" fill-rule="evenodd"/><path d="M358.188,141.09a24.185,24.185,0,0,1,4.371-.928s6.595,3.593,9.051,5.867,5.094,4.73,5.094,4.73l-2.729,3.457s-.792.1-2.135.242l-3.5-.069,1.583-.656a4.859,4.859,0,0,0,2.189-1.61l-6.8.546,1.592-.978a1.467,1.467,0,0,0,.546-2.274l1.365.113c1.365.113,3.631.578,3.631.578l-4.062-2.465a10.714,10.714,0,0,0-3.388-3.749,26.321,26.321,0,0,0-4.775-2.749,4.211,4.211,0,0,0-2.092.137l.063-.186Z" transform="translate(-320.582 -136.971)" fill="#f7bdb7" fill-rule="evenodd"/><path d="M237.485,148.574a62.068,62.068,0,0,0,12.013.138,70,70,0,0,0,10.894-1.528,49.26,49.26,0,0,0-10.108-2.474,61.592,61.592,0,0,0-14.509-.592s4.582.879,8.812,1.674l2.278,1.851c-1.762.243-3.749.479-5.609.615-1.546.112-2.791.226-3.771.317Zm23.546,2.134c1.736.229,5.345.729,12.163,3.632s9.538,5.141,9.538,5.141-5.763,18.6-17.406,31.426C252.962,204.528,248,208.392,248,208.392s-14.1-17.712-21.378-26.536l-6.813-8.261-10.449-2.249s5.4-8.5,12.08-13.5,9.617-5.756,11.15-6.235l-.1-1.6a1.531,1.531,0,0,1-.494-2.63,5.227,5.227,0,0,0-.532-1.284c-.122-.23-1.57-2.89-1.524-2.948a22.178,22.178,0,0,1,7.812-5.07,43.867,43.867,0,0,1,8.065-1.8c.227-.4.562-.623,1.362-.768a3.082,3.082,0,0,1,2.319.523c.506.438.446.565.5.893a44.239,44.239,0,0,1,6.677,3.347c1.367.894,7.843,5.049,7.044,8.748a2.707,2.707,0,0,1-.693,1.012,1.106,1.106,0,0,0-.821-1.25,4.281,4.281,0,0,0-.963,1c-.047.284-.107.557-.2.925Zm-28.693,4.075c-1.482.575-3.532.911-9.629,5.743a47.542,47.542,0,0,0-8.96,8.96l7.732,1.546,26.652,33.158s12.012-10.321,19.2-19.871,12.247-23.9,12.247-23.9a73.44,73.44,0,0,0-12.391-5.8,43.421,43.421,0,0,0-6.778-1.784c-.063.2-.052.158-.052.158a20.183,20.183,0,0,0-.484,2.011,46.689,46.689,0,0,1,16.225,6.575s-5.915,14.964-13.462,24.332a95.309,95.309,0,0,1-14.145,14.464s-12.78-14.054-18.419-21.877-7.05-9.824-7.05-9.824l-4.665-.682s4.232-6.045,14.366-10.338l-.391-2.865Zm28.634,27.232-3.4-.455a31.78,31.78,0,0,1-5.184,9.051,32.878,32.878,0,0,1-3.46,3.652c-.426.29-.666.444-.666.444l-7.748-7.927c.072-.188.16-.422.259-.686,1.182,1.038,4.442,3.522,7.99,2.906,3.647-.632,5.361-4.525,6.063-6.054.475.757.833,1.283.833,1.283a17.283,17.283,0,0,0,1.1-3.5c.461.025,1.09.061,1.952.112,1.063.063,1.984.137,2.74.208-.146.308-.3.633-.477.969Zm-1.15-15.237c.139.886.213,1.5.25,1.916-.624,1.069-1.358,2.4-2.094,3.9a25.251,25.251,0,0,0-2.475,8.075c-.052.363-.072.567-.072.567a13.163,13.163,0,0,1-1.342-2.683,20.235,20.235,0,0,1-.759-2.759,13.649,13.649,0,0,1,.439-1.607s3.07-4.116,3.707-7.322l.373-1.88a9.759,9.759,0,0,0,.74-.98c.952.583,1.059,1.683,1.231,2.773Zm-26.611-6.2a48.881,48.881,0,0,0-8.641,5.4s2.083,3.161,4.742,7.081c-.52-1.031-.524-1.051-.524-1.051l2.818-1.618-.467-1.046c-.213-.478,3.181-3.23,3.52-3.557A28.869,28.869,0,0,1,233.448,162l-.234-1.421Zm36.371,9.7a73.4,73.4,0,0,0,3.332-7.756,49.647,49.647,0,0,0-13.37-4.821c-.013.321-.017.644-.006.966a24.873,24.873,0,0,1,.046,2.774,9.454,9.454,0,0,1-.333.931l4.314,2.9a5.373,5.373,0,0,1-.515,1.563l6.528,3.443Zm-31.855-3.359a12.841,12.841,0,0,1-.961-3.293,5.187,5.187,0,0,1,0-.909l1.7,1.475a13.879,13.879,0,0,0,1.071,2.436c1.927,3.416,6.593,4.785,6.593,4.785a4.426,4.426,0,0,1-3.7.9c.146.375-.083.059.628.952s4.025,1.569,4.025,1.569-.318.546-1.683.773a3.786,3.786,0,0,1-2.456-.477s.455,1.956,3.366,3.07,3.916-.364,3.916-.364a4.014,4.014,0,0,1-1.319,2.456,3.648,3.648,0,0,1-2.661,1.3s1.82,1.206,4.366-1.023a4.731,4.731,0,0,0,1.194-5.31l-.864.1a6.394,6.394,0,0,1-2.013-.216s2.046-.682,4.415-4.185a14.05,14.05,0,0,0,1.7-3.138c-1.362.916-3.559,2.133-5.206,2.133,0,0,3.8-2.274,5.344-5.094a12.094,12.094,0,0,0,1.546-5.276,12.335,12.335,0,0,1-1.8,1.705l-.841.592a3.99,3.99,0,0,1-1.524,2.184,4.152,4.152,0,0,1-1.729.75,22.558,22.558,0,0,0,2.047-4.616,16.055,16.055,0,0,0,.523-2.547,3.48,3.48,0,0,1,.387.87,2.944,2.944,0,0,1,.119.608s1.149-.654,1.512-3.292a9.459,9.459,0,0,0-.392-4.236,67.031,67.031,0,0,1-11.794.457c-1.768-.111-3.322-.292-4.671-.506h0a20.986,20.986,0,0,0,5.651,1.391s-.022.022-3.275.409a22.282,22.282,0,0,1-4.955-.009,16.254,16.254,0,0,0,2.87,2.6c1.546.978,2.16.728,2.16.728a3.166,3.166,0,0,1-1.455.5.88.88,0,0,1-.313-.065,5.4,5.4,0,0,1,1.109,1.634,15.089,15.089,0,0,1-2.853-.113,4.785,4.785,0,0,1-.91-.272,1.021,1.021,0,0,0,.387.466l.307.216a1.884,1.884,0,0,1-1.524-.523c-.146-.167-.285-.325-.411-.476.133,1.141.7,5.343.612,5.239a11.392,11.392,0,0,0,1.765,3.655ZM237,161.431a2.9,2.9,0,0,1,.689-1.395,11.061,11.061,0,0,0,.29,2.293c-.32-.29-.666-.6-.979-.9Zm4.381,23a7.924,7.924,0,0,0,4.2,2.861c3.275.886,5.772-1.989,7.209-3.775a5.646,5.646,0,0,0,1.108-2.137,13.6,13.6,0,0,1-1.166-2.554c-.637,3.593-3.093,8.414-7.277,6.732a6.845,6.845,0,0,1-3.324-3.083l-.076-.009-.268.8c-.125.376-.263.772-.4,1.166Zm-.943-2.424a15.966,15.966,0,0,1-.474,1.534,18.878,18.878,0,0,1-.783,1.873l-.786-.8a86.738,86.738,0,0,0-2.16-8.846,41.121,41.121,0,0,0-2.183-4.915l1.455-1.774a56.231,56.231,0,0,1,3.366,7.459c.786,2.648,1.356,4.71,1.565,5.471Zm18.656-8.591a26.681,26.681,0,0,1,5.007-2.037l1.955-.455-3.734-2.308a32.744,32.744,0,0,0-3.229,4.8ZM234.884,154.2c.333.186.8.452,1.359.782-.358-.309-.689-.607-.959-.861l-.452-.427.053.506Zm7.722,4.628a21.284,21.284,0,0,1,2.024-1.735,2.191,2.191,0,0,1-.727.3,2.53,2.53,0,0,1-1.342-.592,6.9,6.9,0,0,0,2.138-.75c1.319-.568,3.843-2.114,5.665-1.956a6.353,6.353,0,0,1,2.749.773,8.793,8.793,0,0,0-3.674.25,12.075,12.075,0,0,1,3.128.321s-2.114,3.138-3.889,4.139-2.706.637-2.706.637l1.637-.978a8.063,8.063,0,0,1-5-.409ZM256.53,151.4a6.525,6.525,0,0,1,.7,1.715,4,4,0,0,1,.159,2.149,6.7,6.7,0,0,0,.682-2.593,9.75,9.75,0,0,0-.036-1.495c-.426.067-.931.144-1.5.224Zm3.926-2.7-1.111.847-.146.007c-1.774.091-6.868,1.887-15.054,1.228s-10.688-1.683-10.688-1.683,1.046.432,9.073,1.046c7.039.538,14.864-1.109,17.927-1.446Zm-.932-3.514c-.7-.826-.667-1.1-3.416-3.113s-8.353-4.066-8.353-4.066-5.832.39-7.77,1.065a31.022,31.022,0,0,0-3.207,1.3,26.022,26.022,0,0,1,5.7-1.39,8.937,8.937,0,0,1,3.68.348,13.152,13.152,0,0,0-4.56,1.157c-.816.377-1.534,1.282-2.346,1.622,7.732-.526,17.944,2.134,20.275,3.083Zm-12.017,1.11a44.646,44.646,0,0,0,4.665.5s-1.311.242-3.222.537l-1.445-1.041Z" transform="translate(-206.583 -133.375)" fill="#1a0b0b" fill-rule="evenodd"/><path d="M361.1,227.869l2.911-1.206A1.747,1.747,0,0,1,361.1,227.869Z" transform="translate(-322.862 -203.257)" fill="#f60" fill-rule="evenodd"/><path d="M327.488,225.948l-2.364-1.066a1.437,1.437,0,0,0,2.364,1.066Z" transform="translate(-295.295 -201.891)" fill="#f60" fill-rule="evenodd"/><path d="M246.557,334l62.743-6.508-1.66,14.57L244.9,348.565Z" transform="translate(-233.818 -280.52)" fill="#1a0b0b" fill-rule="evenodd"/><text transform="translate(14.826 61.706) rotate(-4.992)" fill="#e6e6e6" font-size="7" font-family="Helvetica-Black, Helvetica" font-weight="800"><tspan x="0" y="0">CSGO</tspan><tspan y="0" fill="#8c2c21">HYER</tspan></text></g><circle cx="213.193" cy="213.193" r="213.193" transform="translate(86.577 301.499) rotate(-45)" fill="#33498a"/><g transform="translate(227.869 142.91)"><path d="M501.687,331.893H182.93L247.113,205.64a17.4,17.4,0,0,1,15.513-9.515H420.7a17.4,17.4,0,0,1,15.449,9.391Z" transform="translate(-182.93 -44.243)" fill="#273366"/><g transform="translate(69.019)"><path d="M417.676,135.9v4.629a30.649,30.649,0,0,0-16.21-27.024L342.291,81.9a26.037,26.037,0,0,0-24.041-.257l-63.132,32.015a30.638,30.638,0,0,0-16.781,27.326v-4.629a30.638,30.638,0,0,1,16.782-27.327L318.25,77.01a26.037,26.037,0,0,1,24.045.259l59.174,31.611A30.649,30.649,0,0,1,417.676,135.9Z" transform="translate(-238.338 -74.196)" fill="#fff"/><path d="M417.676,138.37v60.3a17.386,17.386,0,0,1-17.39,17.383H255.731a17.386,17.386,0,0,1-17.393-17.383V138.816a30.638,30.638,0,0,1,16.782-27.327l63.131-32.01a26.037,26.037,0,0,1,24.045.259l59.174,31.611a30.649,30.649,0,0,1,16.207,27.02Z" transform="translate(-238.338 -73.59)" fill="#273366"/></g></g><g transform="translate(147.013 188.699)"><path d="M359.083,358.3V214.777H337.358l-17.384-4.03a54.5,54.5,0,0,0-43.644,4.915L173.721,283.153c-8.673,5.153-11.54,7.431-16.719,16.087L110.824,366.1Z" transform="translate(-118.021 -87.046)" fill="#1c2340"/><path d="M311.4,358.3V214.777H332.94l17.566-4.03a54.5,54.5,0,0,1,43.644,4.915l101.826,60.49a102.27,102.27,0,0,1,35.531,35.423L552.459,346.6Z" transform="translate(-70.517 -87.046)" fill="#1c2340"/><path d="M21.488,0H62.234A21.488,21.488,0,0,1,83.721,21.488v19H0v-19A21.488,21.488,0,0,1,21.488,0Z" transform="translate(196.966)" fill="none" stroke="#20294a" stroke-miterlimit="10" stroke-width="5.832"/><path d="M274.568,184.431h12.418V135.867H274.568c-3.268,0-5.392,2.453-5.915,5.915,0,0-1.308,5.489-1.308,17.574a126.063,126.063,0,0,0,1.308,19.153C269.256,182.09,271.3,184.431,274.568,184.431Z" transform="translate(-81.339 -104.835)" fill="#20294a"/><path d="M268.835,179.614h9.774V139.1h-9.774c-2.573,0-4.243,2.046-4.658,4.938,0,0-1.03,4.582-1.03,14.663a111.33,111.33,0,0,0,1.03,15.98C264.655,177.661,266.264,179.614,268.835,179.614Z" transform="translate(-82.369 -104.042)" fill="#20294a"/><path d="M350.45,184.431H338.037V135.867H350.45c3.269,0,5.394,2.453,5.919,5.915,0,0,1.308,5.489,1.308,17.574a126.07,126.07,0,0,1-1.308,19.153C355.762,182.09,353.719,184.431,350.45,184.431Z" transform="translate(-63.973 -104.835)" fill="#20294a"/><path d="M355.358,179.614h-9.772V139.1h9.772c2.573,0,4.245,2.046,4.659,4.938,0,0,1.03,4.582,1.03,14.663a111.321,111.321,0,0,1-1.03,15.98C359.539,177.661,357.931,179.614,355.358,179.614Z" transform="translate(-62.118 -104.042)" fill="#20294a"/><rect width="12.133" height="17.335" rx="4.046" transform="translate(200.366 65.363)" fill="#f57a8c"/><rect width="12.133" height="17.335" rx="4.046" transform="translate(270.048 65.363)" fill="#f57a8c"/><rect width="43.086" height="40.193" transform="translate(219.337 87.582)" fill="#ff7d7d"/><path d="M320.244,125.346h-22.09a20.755,20.755,0,0,0-20.4,24.57l9,48.147a21.757,21.757,0,0,0,12.838,16.009l8.609,3.681a30.64,30.64,0,0,0,24.092,0l8.609-3.681a21.757,21.757,0,0,0,12.835-16.008l6.891-36.86c2.287-12.233-4.8-35.856-17.245-35.856Z" transform="translate(-78.87 -107.42)" fill="#ff9191"/><path d="M280.665,150.927l7.324-25.624a13.68,13.68,0,0,1,14.882-9.895l43.53,4.685a15.029,15.029,0,0,1,13.421,14.942v18.185c-2.032,9.283-10.8-1.767-20.161-2.327Z" transform="translate(-78.066 -109.889)" fill="#1c2340"/><path d="M295.4,120.307h-5.1a13,13,0,0,0-12.9,13.08V158.7h13.856Z" transform="translate(-78.87 -108.657)" fill="#1c2340"/><path d="M370.82,153.668v12.837a12.63,12.63,0,0,1-14.062,12.547c-5.365-.612-11.9-1.235-18.96-1.66-3.02-.187-6.143-.342-9.309-.426q-3.627-.109-7.306-.114c-6.289,0-12.3.207-17.808.54-1.66.093-3.269.207-4.832.333-1.8.124-3.528.27-5.189.426-2.792.25-5.376.519-7.71.789a11.052,11.052,0,0,1-2.024.062,12.608,12.608,0,0,1-12.059-12.609V153.668a12.631,12.631,0,0,1,12.628-12.63h74.006a12.632,12.632,0,0,1,12.625,12.63Z" transform="translate(-80.304 -103.565)" fill="#44549c"/><path d="M370.82,153.668v15.255a12.63,12.63,0,0,1-14.062,12.547c-5.365-.612-11.9-1.235-18.96-1.66-3.02-.187-6.143-.342-9.309-.426q-3.627-.109-7.306-.114c-6.289,0-12.3.207-17.808.54-1.66.093-3.269.207-4.832.333-1.8.124-3.528.27-5.189.426-2.792.25-5.376.519-7.71.789a11.056,11.056,0,0,1-2.024.062,12.608,12.608,0,0,1-12.059-12.609V153.668a12.631,12.631,0,0,1,12.628-12.63h74.006a12.632,12.632,0,0,1,12.625,12.63Z" transform="translate(-80.304 -103.565)" fill="#44549c"/><path d="M274.095,171.622v3.885a25.651,25.651,0,0,0,11.153,21.161l16.619,11.385" transform="translate(-79.681 -96.052)" fill="none" stroke="#20294a" stroke-miterlimit="10" stroke-width="4.166"/><path d="M303.716,200.553c0,2.446-2.3,4.429-5.144,4.429s-5.144-1.983-5.144-4.429,2.3-4.428,5.144-4.428S303.716,198.107,303.716,200.553Z" transform="translate(-74.93 -90.032)" fill="#20294a"/><path d="M339.436,139.1,326.568,177.87c-3.02-.187-6.143-.342-9.309-.426L329.982,139.1Z" transform="translate(-69.077 -104.042)" fill="#556ac2"/><path d="M304.1,139.1l-13.128,39.529c-2.792.25-5.376.519-7.71.789a11.055,11.055,0,0,1-2.024.062l13.408-40.38Z" transform="translate(-77.926 -104.042)" fill="#556ac2"/><path d="M310.919,139.1,298.051,177.87c-1.66.093-3.269.207-4.832.333l12.972-39.1Z" transform="translate(-74.983 -104.042)" fill="#fff"/><path d="M315.378,139.1,302.509,177.87c-.726.042-1.432.083-2.138.135L313.285,139.1Z" transform="translate(-73.225 -104.042)" fill="#fff"/><path d="M315.378,139.1,302.509,177.87c-.726.042-1.432.083-2.138.135L313.285,139.1Z" transform="translate(-73.225 -104.042)" fill="#fff"/><path d="M3.319,0H70.385A3.319,3.319,0,0,1,73.7,3.319V70.385A3.319,3.319,0,0,1,70.385,73.7H3.319A3.319,3.319,0,0,1,0,70.384V3.319A3.319,3.319,0,0,1,3.319,0Z" transform="translate(242.177 181.701) rotate(45)" fill="none" stroke="#e6e6e6" stroke-width="1.666"/><rect width="78.839" height="78.839" transform="translate(202.757 196.243)" fill="#1c2340"/><path d="M370.82,151.727v2.416a12.631,12.631,0,0,0-12.628-12.63H284.184a12.631,12.631,0,0,0-12.63,12.628v-2.414a12.631,12.631,0,0,1,12.628-12.63h74.006a12.632,12.632,0,0,1,12.632,12.63Z" transform="translate(-80.304 -104.042)" fill="#fff"/><path d="M294.1,213.527l1.39,1.255a30.141,30.141,0,0,0,41.695-1.256Z" transform="translate(-74.765 -85.757)" fill="#ff7d7d"/></g><g transform="translate(363.217 403.245)"><text transform="translate(1.307 20.033) rotate(-4.992)" fill="#f1f1f1" font-size="15" font-family="Helvetica-Black, Helvetica" font-weight="800"><tspan x="0" y="0">HYER</tspan></text></g><g transform="translate(0 406.62)"><g transform="translate(406.735 23.941)"><path d="M430.492,372.774q-14.963,1.7-29.909,3.123a3.617,3.617,0,0,1-3.95-3.485l-.461-14.139a3.616,3.616,0,0,1,3.237-3.706Q414,353.03,428.07,351.3a3.6,3.6,0,0,1,4.022,3.185l1.583,14.3a3.617,3.617,0,0,1-3.182,3.991Z" transform="translate(-309.412 -293.783)" fill="#fff"/><path d="M409.759,354.324l.7,21.337q-2.9.265-5.791.519c-9.807.861-19.583,1.609-29.255,2.242q-3.332.218-6.642.4-14.337.871-28.331,1.328l6.881-20.558q12.78-.825,25.27-1.847,2.787-.217,5.542-.447,13.357-1.136,26.36-2.439C406.252,354.687,408.006,354.511,409.759,354.324Z" transform="translate(-323.105 -293.033)" fill="#1c2340"/><path d="M531.214,358.268q-13.9,2.459-28.409,4.838a3.62,3.62,0,0,1-3.864-2.039L492.2,346.6a3.613,3.613,0,0,1,2.654-5.082q13.192-2.318,25.517-4.695a3.6,3.6,0,0,1,3.68,1.547l9.538,14.345a3.609,3.609,0,0,1-2.373,5.554Z" transform="translate(-285.908 -297.349)" fill="#75f4ff"/><path d="M506.7,341.227l9.89,21.223q-3.129.514-6.278,1.006c-11.571,1.847-23.361,3.632-35.295,5.332l-5.3.75c-12.277,1.712-24.689,3.321-37.153,4.8-1.826.218-3.666.436-5.5.643l-2.376-21.513,5.147-.654q17.917-2.289,34.89-4.825c1.65-.238,3.29-.487,4.93-.736q16.018-2.429,31.06-5Q503.737,341.756,506.7,341.227Z" transform="translate(-302.408 -296.25)" fill="#1c2340"/><path d="M586.951,352.908l-7,1.422c-13.387,2.708-27.659,5.469-42.591,8.188q-3.378.622-6.808,1.235L516.635,342.82q3.316-.622,6.548-1.276c13.741-2.708,26.576-5.407,38.407-8.022l5.739-1.287c15.649-3.518,29.39-6.87,41-9.831h.01c2.138-.54,4.2-1.083,6.2-1.6C614.535,320.807,602.85,349.626,586.951,352.908Z" transform="translate(-279.822 -303.798)" fill="#1c2340"/><path d="M471.115,394.114q-16.234,1.839-32.98,3.462a3.622,3.622,0,0,1-3.936-3.144l-2.119-16.7a3.612,3.612,0,0,1,3.181-4.039q15.71-1.776,31.03-3.786a3.6,3.6,0,0,1,3.976,2.763l3.95,17.035a3.609,3.609,0,0,1-3.1,4.406Z" transform="translate(-300.6 -289.212)" fill="#75f4ff"/><path d="M456.077,373.269l3.02,23.806q-2.989.3-6.008.571c-13.1,1.2-26.36,2.3-39.715,3.279q-3.237.233-6.5.457-16.61,1.152-33.313,2.014c-2.74.145-5.469.28-8.209.4q-15.676.732-31.289,1.183c-.114,0-.2.01-.312.01l-1.266.031,7.721-23.049q14.633-.5,29.338-1.339c2.324-.135,4.66-.27,6.984-.417q15.1-.934,30.137-2.166,2.973-.233,5.947-.5c12.712-1.083,25.353-2.314,37.848-3.666Z" transform="translate(-325.057 -288.379)" fill="#1c2340"/><path d="M509.223,389.481q-16.412,2.249-33.682,4.306a3.621,3.621,0,0,1-3.939-2.714l-4.3-17.226a3.613,3.613,0,0,1,3.019-4.45q15.3-2.1,30.023-4.364a3.6,3.6,0,0,1,3.832,2.083l7.831,17.3a3.607,3.607,0,0,1-2.789,5.064Z" transform="translate(-291.965 -290.412)" fill="#8c2c21"/><path d="M467.575,368.97l6.04,24.222c-1.951.239-3.9.467-5.873.685l-5.6-24.169C463.954,369.468,465.77,369.219,467.575,368.97Z" transform="translate(-293.208 -289.435)" fill="#1c2340"/><path d="M656.495,338.17v28.009c-6.881,1.833-15.348,4.037-25.177,6.507q-5.449,1.37-11.447,2.749c-2.76.633-5.614,1.276-8.541,1.909-14.238,3.113-30.365,6.248-48,9.309-2.356.4-4.753.81-7.161,1.214-13.429,2.273-27.659,4.483-42.518,6.611q-3.333.467-6.7.934h-.011l-1.961-4.338-7.887-17.412-1.111-2.449c2.138-.333,4.255-.666,6.372-1,13.08-2.075,25.727-4.224,37.823-6.392h.01c2.314-.417,4.6-.833,6.87-1.246,15.608-2.864,30.242-5.759,43.649-8.6q3.7-.778,7.306-1.556c12.318-2.678,23.485-5.282,33.3-7.742,3.362-.841,6.569-1.66,9.61-2.439,2.781-.706,5.407-1.39,7.9-2.034C651.562,339.488,654.126,338.8,656.495,338.17Z" transform="translate(-284.895 -297.001)" fill="#1c2340"/><path d="M680.322,371.751c6.569-1.65,12.516-3.176,17.8-4.555v35.938c-1,.187-2,.384-3.009.571q-5.277,1.027-10.831,2c-16.895,3.02-35.668,5.873-55.864,8.53q-3.8.514-7.68,1.006c-15.847,2.024-32.5,3.933-49.782,5.729-2.408.25-4.815.5-7.244.736-15.784,1.588-32.057,3.072-48.661,4.452l-6.5.529c-1.765.145-3.539.291-5.314.426q-10.227.81-20.59,1.567c-6.008.436-12.322-.417-18.383,0-2.166.145-4.249-.135-6.431,0H326.523l.529-1.567,4.764-14.207c3.591-.052,7.191-.135,10.793-.228.1,0,.2-.01.3-.01q11.33-.327,22.717-.8c2.843-.114,5.7-.25,8.551-.384q17.123-.794,34.215-1.916,3.332-.218,6.665-.447v-.01q20.283-1.385,40.255-3.176c2.044-.187,4.082-.363,6.113-.561,13.958-1.276,27.729-2.688,41.221-4.2l6-.685c14.736-1.691,29.12-3.507,43.005-5.407,2.283-.312,4.545-.633,6.8-.945,15.3-2.148,29.96-4.4,43.794-6.7q3.658-.607,7.233-1.225c18.079-3.093,34.641-6.278,49.253-9.443h.01q4.592-1,8.914-1.982Q674.313,373.257,680.322,371.751Z" transform="translate(-326.523 -289.871)" fill="#1c2340"/><path d="M375.824,348.009l-1.39,10.845-2.719,21.119-.833,6.455L367.913,409.6l-.851,6.6-2.014,15.628-.2,1.567h-9.378l.28-1.567,2.76-15.246L359.707,410l4.192-23.161,1.173-6.465,3.819-21.078,1.6-8.84Z" transform="translate(-319.411 -294.585)" fill="#44549c"/><path d="M399.661,435.7h-7.109c-.01-.519-.01-1.038-.01-1.567-.062-5.719-.114-11.623-.177-17.549-.021-2.231-.042-4.473-.052-6.693-.072-8-.145-15.919-.207-23.327q-.031-3.347-.052-6.527c-.072-8.157-.135-15.473-.177-21.316-.072-8.738-.114-14.176-.114-14.176l4.753-5.926.633,19.562.7,21.337.207,6.548.757,23.371.218,6.694v.01l.583,18Z" transform="translate(-310.496 -296.891)" fill="#44549c"/><path d="M440.8,436.527q-3.249.214-6.517.417l-.187-1.666-.177-1.542-2.345-20.84-.757-6.688-2.625-23.372-.75-6.665-.373-3.277V372.8l-.01-.083-1.64-14.632-.01-.031v-.02L425.068,355l-1.916-17.041,4.39-4.4,2.678,20.8,2.729,21.177.861,6.688.447,3.421.01.083,2.138,16.579.01.083.417,3.257.861,6.7,2.749,21.391.207,1.542Z" transform="translate(-302.787 -298.133)" fill="#44549c"/><path d="M484.681,438.106h-6.673l-.363-1.567-.093-.426-5.905-25.519-1.588-6.86-.916-3.923-3.954-17.061-.736-3.186-1.619-6.984-4.992-21.544-5.134-22.2,6.216,6.04,3.85,15.421,5.365,21.534,1.754,7,.976,3.9,4.3,17.227.768,3.093,1.712,6.86,6.4,25.675.238.955Z" transform="translate(-295.525 -299.293)" fill="#44549c"/><path d="M536.193,437.469h-7.68l-.706-1.567-2.449-5.407L513.3,403.865l-3.074-6.8h-.01l-1.961-4.338-7.887-17.412-1.111-2.449-3.176-7-9.6-21.2-3.84-8.481,4.151-4.732,5.677,12.183,1.993,4.276,6.748,14.466,1.152,2.48,3.269,7.016,11.3,24.263,3.166,6.787L532.6,429.755l2.864,6.143Z" transform="translate(-288.171 -298.653)" fill="#44549c"/><path d="M593,438.544h-8.5l-1.048-1.567-7.887-11.872-18.5-27.813-4.441-6.694-15.982-24.045h-.01l-4.556-6.87-3.053-4.587-9.537-14.342-1.328-2-7.773-11.7h7.286l7.036,10.419,14.176,20.974,4.629,6.86,16.272,24.077,4.515,6.683,18.939,28.03,8.7,12.879Z" transform="translate(-281.355 -299.732)" fill="#44549c"/></g><path d="M271.706,412.575h0c4.1,3.358,2.627,12.33-2.624,13.051L210.557,433.7a28.042,28.042,0,0,1-16.762-2.9l-33.334-17.329s-36.481,4.278-47.357,0-14.663-90.74,39.416-109.7S236.448,342.6,236.448,342.6Z" transform="translate(21.302 -282.709)" fill="#1c2340"/><g transform="translate(127.278 11.465)"><path d="M172.156,411.6l-24.81-18.287s-9.632-57.344-9.914-57.838c-.2-.347,36.729-4.794,58.66-7.4a26.993,26.993,0,0,1,25.122,11.07l31.771,44.281a33.83,33.83,0,0,1,6.264,22.032h0a10.8,10.8,0,0,1-9.045,9.919l-37.429,6.057A53.927,53.927,0,0,1,172.156,411.6Z" transform="translate(-93.518 -287.052)" fill="#20294a"/><path d="M146.091,396.037l-9.776,2.387-5.635,1.37a10.858,10.858,0,0,1-11.561-4.431l-13.958-20.444a17.139,17.139,0,0,1-1.152-17.372l6.8-13.45a19.7,19.7,0,0,1,6.621-11.052c.394-.333.8-.654,1.225-.955l9.558-6.818,2.532-1.805,7.389,25.727-1.183,2.594-7.628,16.687,3.57,7.866,11.2,2.138Z" transform="translate(-102.177 -288.137)" fill="#ff9191"/><path d="M140.184,343.608c-1.481-3.021,75.863-13.531,75.863-13.531l-24.479-23.024-48.212,1.737-11.1,8.609Z" transform="translate(-94.789 -292.169)" fill="#ff7d7d"/><path d="M192.677,351.055l21.7,32.546a8.144,8.144,0,0,0,7.831,3.6l10.8-1.416a5.188,5.188,0,0,0,3.652-7.869l-20.144-32.891a5.541,5.541,0,0,0-5.532-2.61l-15.568,2.3a4.106,4.106,0,0,0-2.74,6.346Z" transform="translate(-80.117 -283.498)" fill="#75f4ff"/><path d="M162.074,353.848l25.642,36.182a4.541,4.541,0,0,0,4.259,1.84l16.674-2.053a3.533,3.533,0,0,0,2.666-5.409l-24.273-37.29a1.7,1.7,0,0,0-1.656-.738l-21.244,2.952a2.888,2.888,0,0,0-2.067,4.515Z" transform="translate(-87.594 -282.512)" fill="#8c2c21"/><path d="M246.216,389.708a7.748,7.748,0,0,1-4.38,1.339h-.519a21.774,21.774,0,0,1-19.541-12.171l-15.536-31.6-40.317-43.036c0-.114,6.071-2.885,12.349-5.719l2.76-1.245a17.819,17.819,0,0,1,19.624,3.372L233.637,332.2a9.217,9.217,0,0,1,2.48,4.082l13.18,44.78a7.771,7.771,0,0,1-3.082,8.642Z" transform="translate(-86.518 -294.957)" fill="#ff9191"/><path d="M143.891,395.681l-9.776,2.387-21.379-32.317A9.627,9.627,0,0,1,111.242,359l3.985-26.318c.394-.333.8-.654,1.225-.955l9.558-6.815,8.738,26.515-7.628,16.687,3.57,7.866,11.2,2.138Z" transform="translate(-99.977 -287.781)" fill="#ff7d7d"/><path d="M157.591,403.488a1.052,1.052,0,0,0-.156.073c-.052.021-.093.042-.145.062a13.276,13.276,0,0,1-16.511-4.96c-1.733-2.688-3.5-5.438-4.764-7.545a24.187,24.187,0,0,1-3.03-7.68c-2.128-10.15-7.286-36.665-9.914-50.166a20.578,20.578,0,0,1,2.948-15.11l.529-.82a15.943,15.943,0,0,1,12.018-7.191v-.01a15.725,15.725,0,0,1,7.191,1.038l2.605,1.017,10.949,63.875,4.576,12.153a12.087,12.087,0,0,1-6.3,15.264Z" transform="translate(-97.135 -291.427)" fill="#ff9191"/><path d="M154.46,403.488a1.048,1.048,0,0,0-.156.072c-.052.021-.093.042-.145.063.132-.5.269-1.011.4-1.524a21.04,21.04,0,0,0-1.517-14.821l-4.213-8.42a6.527,6.527,0,0,1-.572-1.69L135.44,310.151v-.01a15.725,15.725,0,0,1,7.191,1.038l2.605,1.017,10.949,63.875,4.576,12.153a12.087,12.087,0,0,1-6.3,15.264Z" transform="translate(-94.006 -291.427)" fill="#ff7d7d"/><path d="M246.216,389.153a7.748,7.748,0,0,1-4.38,1.339h-.519a21.772,21.772,0,0,1-19.539-12.165L206.24,346.721l-40.317-43.039c0-.114,6.071-2.885,12.349-5.719,8.1,7.92,26.556,27.131,35.649,36.63a35.56,35.56,0,0,1,7.81,12.656l7.937,22.268a33.627,33.627,0,0,0,10.776,15.055Z" transform="translate(-86.518 -294.402)" fill="#ff7d7d"/><path d="M209.241,387.3a14.08,14.08,0,0,1-10.346,13.553,14.45,14.45,0,0,1-2.439.447,14.071,14.071,0,0,1-15-10.824l-6.6-28.331L166,330.226l-24.834-18.5,6.258-6.673,3.832-4.082a18.557,18.557,0,0,1,23.641-2.874l3.857,2.5A47.479,47.479,0,0,1,199.6,331.816l4.659,25.262,4.774,27.826a14.582,14.582,0,0,1,.2,2.4Z" transform="translate(-92.601 -295.104)" fill="#ff9191"/><path d="M198.895,398.9a14.447,14.447,0,0,1-2.439.447,14.071,14.071,0,0,1-15-10.824l-6.6-28.331L166,328.264l-24.834-18.5,6.258-6.673L166.783,315.3a21.263,21.263,0,0,1,9.407,13.336l12.529,55.92a20.028,20.028,0,0,0,5.759,10.151Z" transform="translate(-92.601 -293.143)" fill="#ff7d7d"/></g><g transform="translate(501.578 13.078)"><path d="M402.661,364s0-35.093,10.681-38.345,126.647-16.19,126.647-16.19l20.106,31.025Z" transform="translate(-402.661 -293.189)" fill="#29335e" opacity="0.32"/><g transform="translate(6.849)"><path d="M470.551,309.377,454.175,326.8l-19.158,20.382-4.151,26.968A13.127,13.127,0,0,1,417.953,384.9h-.312a9.5,9.5,0,0,1-9.475-9.932l.736-30a10.768,10.768,0,0,1,2.273-6.165l22.572-28.943a18.172,18.172,0,0,1,21.689-6.538Z" transform="translate(-408.16 -295.017)" fill="#ff9191"/><path d="M488.69,302.989l-9.35,27.418-1.6,4.67-7.586,22.26-6.465,40.9a12.823,12.823,0,0,1-12.817,12.235,12.465,12.465,0,0,1-1.536-.093,12.83,12.83,0,0,1-11.291-12.712L436.272,359.3a15.235,15.235,0,0,1,1.059-6.341l17.383-44.042a16.739,16.739,0,0,1,4.12-6.4,16.453,16.453,0,0,1,16.189-3.642l7.514,2.263Z" transform="translate(-401.258 -295.976)" fill="#ff9191"/><path d="M502.773,351.047l-8.479,41.106a12.862,12.862,0,0,1-4.422,8.115,14.691,14.691,0,0,1-8.572,3.882,13.136,13.136,0,0,1-5.51-.861,14.719,14.719,0,0,1-9.248-16.491l6.042-35.222s-1.246-6.767-2.231-16.079c-.3-2.906-.592-6.05-.809-9.319-.228-3.539-.373-7.212-.384-10.855a19,19,0,0,1,13.325-18.057l1.255-.394a10.073,10.073,0,0,1,12.4,5.6,10.247,10.247,0,0,1,.737,4.082l6.073,40.353a10.909,10.909,0,0,1-.179,4.137Z" transform="translate(-393.869 -296.399)" fill="#ff9191"/><path d="M528.738,347.918l-5.936,17.03a7.962,7.962,0,0,1-7.534,5.365c-.135,0-.27,0-.4-.01a6.524,6.524,0,0,1-.882-.093c-6.748-1.111-8.5-6.455-9.122-14.413l-.207-12.163s-3.528-6.04-7.831-13.491v-.01c-6.767-11.685-15.442-26.816-15.442-27.522l12.111-3.467a12.673,12.673,0,0,1,14.321,5.656l19.9,33.178a11.8,11.8,0,0,1,1.022,9.941Z" transform="translate(-390.175 -295.845)" fill="#ff9191"/><path d="M458.37,309.469l-3.84,9.724-2.283,5.78L433.09,345.355l-4.151,26.972a13.127,13.127,0,0,1-12.913,10.751H416l2.166-3.726a17.925,17.925,0,0,0,2.107-5.582l5.78-29.338a12.752,12.752,0,0,1,3.528-6.569Z" transform="translate(-406.232 -293.189)" fill="#ff7d7d"/><path d="M479.505,384.233l1.095,13.184a14.719,14.719,0,0,1-9.248-16.49l6.04-35.222s-1.246-6.767-2.231-16.079l-7.586,22.26-6.465,40.9a12.823,12.823,0,0,1-12.817,12.235,12.465,12.465,0,0,1-1.536-.093h0a41.052,41.052,0,0,0,8.821-20.882l3.443-28.553a15.172,15.172,0,0,1,1.271-4.5l14.06-30.671.01-.01,2.4,4.66,5.327,15.462a26.113,26.113,0,0,1,1.166,12.176L479.7,377.646a29.543,29.543,0,0,0-.191,6.587Z" transform="translate(-398.678 -290.528)" fill="#ff7d7d"/><path d="M512.547,368.105a6.519,6.519,0,0,1-.882-.093c-6.748-1.111-8.5-6.455-9.122-14.413l-.207-12.163s-3.528-6.04-7.831-13.491v-.01l-3.695-20.328,14.974,22.929a27.543,27.543,0,0,1,4.23,18.775l-.946,6.951a14.2,14.2,0,0,0,1.925,9.273Z" transform="translate(-387.858 -293.647)" fill="#ff7d7d"/></g></g><path d="M765.133,317.774C882.073,348.09,905.751,448.657,905.751,448.657H0S160.867,335.288,404.483,335.288c178.148,0,226.088-26.12,286.247-27.522C711.873,307.273,734.609,309.862,765.133,317.774Z" transform="translate(0 -285.9)" fill="#44549c"/><path d="M430.492,372.774q-14.963,1.7-29.909,3.123a3.617,3.617,0,0,1-3.95-3.485l-.461-14.139a3.616,3.616,0,0,1,3.237-3.706Q414,353.03,428.07,351.3a3.6,3.6,0,0,1,4.022,3.185l1.583,14.3a3.617,3.617,0,0,1-3.182,3.991Z" transform="translate(97.323 -269.841)" fill="#fff"/><path d="M409.759,354.324l.7,21.337q-2.9.265-5.791.519c-9.807.861-19.583,1.609-29.255,2.242q-3.332.218-6.642.4-14.337.871-28.331,1.328l6.881-20.558q12.78-.825,25.27-1.847,2.787-.217,5.542-.447,13.357-1.136,26.36-2.439C406.252,354.687,408.006,354.511,409.759,354.324Z" transform="translate(83.631 -269.091)" fill="#1c2340"/><path d="M531.214,358.268q-13.9,2.459-28.409,4.838a3.62,3.62,0,0,1-3.864-2.039L492.2,346.6a3.613,3.613,0,0,1,2.654-5.082q13.192-2.318,25.517-4.695a3.6,3.6,0,0,1,3.68,1.547l9.538,14.345a3.609,3.609,0,0,1-2.373,5.554Z" transform="translate(120.828 -273.407)" fill="#75f4ff"/><path d="M506.7,341.227l9.89,21.223q-3.129.514-6.278,1.006c-11.571,1.847-23.361,3.632-35.295,5.332l-5.3.75c-12.277,1.712-24.689,3.321-37.153,4.8-1.826.218-3.666.436-5.5.643l-2.376-21.513,5.147-.654q17.917-2.289,34.89-4.825c1.65-.238,3.29-.487,4.93-.736q16.018-2.429,31.06-5Q503.737,341.756,506.7,341.227Z" transform="translate(104.328 -272.309)" fill="#1c2340"/><path d="M640.721,340.911c-12.709,2.958-38.1,8.716-53.961,12l-6.986,1.422c-13.351,2.708-27.581,5.469-42.475,8.188q-3.369.622-6.789,1.235l-13.879-20.934q3.307-.622,6.531-1.276c13.7-2.708,26.5-5.407,38.3-8.022l5.724-1.287c15.607-3.518,29.31-6.87,40.891-9.831h.01c2.132-.54,4.191-1.083,6.178-1.6C614.268,320.807,639.143,338.759,640.721,340.911Z" transform="translate(126.914 -279.857)" fill="#1c2340"/><path d="M471.115,394.114q-16.234,1.839-32.98,3.462a3.622,3.622,0,0,1-3.936-3.144l-2.119-16.7a3.612,3.612,0,0,1,3.181-4.039q15.71-1.776,31.03-3.786a3.6,3.6,0,0,1,3.976,2.763l3.95,17.035a3.609,3.609,0,0,1-3.1,4.406Z" transform="translate(106.136 -265.271)" fill="#75f4ff"/><path d="M456.077,373.269l3.02,23.806q-2.989.3-6.008.571c-13.1,1.2-26.36,2.3-39.715,3.279q-3.237.233-6.5.457-16.61,1.152-33.313,2.014c-2.74.145-5.469.28-8.209.4q-15.676.732-31.289,1.183c-.114,0-.2.01-.312.01l-1.266.031,7.721-23.049q14.633-.5,29.338-1.339c2.324-.135,4.66-.27,6.984-.417q15.1-.934,30.137-2.166,2.973-.233,5.947-.5c12.712-1.083,25.353-2.314,37.848-3.666Z" transform="translate(81.678 -264.437)" fill="#1c2340"/><path d="M509.223,389.481q-16.412,2.249-33.682,4.306a3.621,3.621,0,0,1-3.939-2.714l-4.3-17.226a3.613,3.613,0,0,1,3.019-4.45q15.3-2.1,30.023-4.364a3.6,3.6,0,0,1,3.832,2.083l7.831,17.3a3.607,3.607,0,0,1-2.789,5.064Z" transform="translate(114.771 -266.469)" fill="#c83232"/><path d="M467.575,368.97l6.04,24.222c-1.951.239-3.9.467-5.873.685l-5.6-24.169C463.954,369.468,465.77,369.219,467.575,368.97Z" transform="translate(113.527 -265.494)" fill="#1c2340"/><path d="M656.495,338.17,682.626,359.1l-26.131,7.076c-6.881,1.833-15.348,4.037-25.177,6.507q-5.449,1.37-11.447,2.749c-2.76.633-5.614,1.276-8.541,1.909-14.238,3.113-30.365,6.248-48,9.309-2.356.4-4.753.81-7.161,1.214-13.429,2.273-27.659,4.483-42.518,6.611q-3.333.467-6.7.934h-.011l-1.961-4.338-7.887-17.412-1.111-2.449c2.138-.333,4.255-.666,6.372-1,13.08-2.075,25.727-4.224,37.823-6.392h.01c2.314-.417,4.6-.833,6.87-1.246,15.608-2.864,30.242-5.759,43.649-8.6q3.7-.778,7.306-1.556c12.318-2.678,23.485-5.282,33.3-7.742,3.362-.841,6.569-1.66,9.61-2.439,2.781-.706,5.407-1.39,7.9-2.034C651.562,339.488,654.126,338.8,656.495,338.17Z" transform="translate(121.841 -273.06)" fill="#1c2340"/><path d="M675.118,371.751q9.709-2.476,17.536-4.555v35.938c-.981.187-1.974.384-2.965.571q-5.2,1.027-10.675,2c-16.646,3.02-35.144,5.873-55.042,8.53q-3.742.514-7.566,1.006c-15.614,2.024-32.025,3.933-49.05,5.729-2.372.25-4.745.5-7.137.736-15.553,1.588-31.585,3.072-47.946,4.452l-6.4.529c-1.738.145-3.487.291-5.235.426q-10.081.81-20.287,1.567c-4.749.35-20.925-.609-21.681,0-.215.177.483-.03-132.146,0l.522-1.567,4.693-14.207c3.538-.052,7.086-.135,10.634-.228.1,0,.194-.01.3-.01q11.164-.327,22.382-.8c2.8-.114,5.614-.25,8.425-.384q16.871-.794,33.712-1.916,3.282-.218,6.565-.447v-.01q19.985-1.385,39.663-3.176c2.014-.187,4.018-.363,6.023-.561,13.753-1.276,27.321-2.688,40.614-4.2l5.91-.685c14.52-1.691,28.692-3.507,42.373-5.407,2.249-.312,4.479-.633,6.7-.945,15.072-2.148,29.52-4.4,43.15-6.7q3.6-.607,7.127-1.225c17.812-3.093,34.132-6.278,48.528-9.443h.01q4.525-1,8.784-1.982Q669.2,373.257,675.118,371.751Z" transform="translate(80.212 -265.93)" fill="#1c2340"/><path d="M375.824,348.009l-1.39,10.845-2.719,21.119-.833,6.455L367.913,409.6l-.851,6.6-2.014,15.628-.2,1.567h-9.378l.28-1.567,2.76-15.246L359.707,410l4.192-23.161,1.173-6.465,3.819-21.078,1.6-8.84Z" transform="translate(87.325 -270.643)" fill="#44549c"/><path d="M399.661,435.7h-7.109c-.01-.519-.01-1.038-.01-1.567-.062-5.719-.114-11.623-.177-17.549-.021-2.231-.042-4.473-.052-6.693-.072-8-.145-15.919-.207-23.327q-.031-3.347-.052-6.527c-.072-8.157-.135-15.473-.177-21.316-.072-8.738-.114-14.176-.114-14.176l4.753-5.926.633,19.562.7,21.337.207,6.548.757,23.371.218,6.694v.01l.583,18Z" transform="translate(96.24 -272.949)" fill="#44549c"/><path d="M440.718,436.812c-.325.338-4.382.3-6.439.217l-.181-1.75-.177-1.542-2.345-20.84-.757-6.688-2.625-23.372-.75-6.665-.373-3.277V372.8l-.01-.083-1.64-14.632-.01-.031v-.02L425.069,355l-1.916-17.041,4.39-4.4,2.678,20.8,2.729,21.177.861,6.688.447,3.421.01.083,2.138,16.579.01.083.417,3.257.861,6.7,2.749,21.391.207,1.542Z" transform="translate(103.949 -274.192)" fill="#44549c"/><path d="M484.681,438.106h-6.673l-.363-1.567-.093-.426-5.905-25.519-1.588-6.86-.916-3.923-3.954-17.061-.736-3.186-1.619-6.984-4.992-21.544-5.134-22.2,6.216,6.04,3.85,15.421,5.365,21.534,1.754,7,.976,3.9,4.3,17.227.768,3.093,1.712,6.86,6.4,25.675.238.955Z" transform="translate(111.21 -275.352)" fill="#44549c"/><path d="M536.193,437.469h-7.68l-.706-1.567-2.449-5.407L513.3,403.865l-3.074-6.8h-.01l-1.961-4.338-7.887-17.412-1.111-2.449-3.176-7-9.6-21.2-3.84-8.481,4.151-4.732,5.677,12.183,1.993,4.276,6.748,14.466,1.152,2.48,3.269,7.016,11.3,24.263,3.166,6.787L532.6,429.755l2.864,6.143Z" transform="translate(118.564 -274.711)" fill="#44549c"/><path d="M593,438.544h-8.5l-1.048-1.567-7.887-11.872-18.5-27.813-4.441-6.694-15.982-24.045h-.01l-4.556-6.87-3.053-4.587-9.537-14.342-1.328-2-7.773-11.7h7.286l7.036,10.419,14.176,20.974,4.629,6.86,16.272,24.077,4.515,6.683,18.939,28.03,8.7,12.879Z" transform="translate(125.381 -275.79)" fill="#44549c"/><path d="M644.617,433.916l-13.844-15.692-25.54-28.943h-.01l-5.77-6.548-20.62-23.371-5.687-6.445,7-1.422,5.988,6.31,21.856,23.018,6.154,6.476,27.459,28.926Z" transform="translate(133.715 -278.446)" fill="#44549c"/><g transform="translate(127.278 11.465)"><path d="M172.156,411.6l-24.81-18.287s-9.632-57.344-9.914-57.838c-.2-.347,36.729-4.794,58.66-7.4a26.993,26.993,0,0,1,25.122,11.07l31.771,44.281a33.83,33.83,0,0,1,6.264,22.032h0a10.8,10.8,0,0,1-9.045,9.919l-37.429,6.057A53.927,53.927,0,0,1,172.156,411.6Z" transform="translate(-93.518 -287.052)" fill="#20294a"/><path d="M146.091,396.037l-9.776,2.387-5.635,1.37a10.858,10.858,0,0,1-11.561-4.431l-13.958-20.444a17.139,17.139,0,0,1-1.152-17.372l6.8-13.45a19.7,19.7,0,0,1,6.621-11.052c.394-.333.8-.654,1.225-.955l9.558-6.818,2.532-1.805,7.389,25.727-1.183,2.594-7.628,16.687,3.57,7.866,11.2,2.138Z" transform="translate(-102.177 -288.137)" fill="#ff9191"/><path d="M140.184,343.608c-1.481-3.021,75.863-13.531,75.863-13.531l-24.479-23.024-48.212,1.737-11.1,8.609Z" transform="translate(-94.789 -292.169)" fill="#ff7d7d"/><path d="M192.677,351.055l21.7,32.546a8.144,8.144,0,0,0,7.831,3.6l10.8-1.416a5.188,5.188,0,0,0,3.652-7.869l-20.144-32.891a5.541,5.541,0,0,0-5.532-2.61l-15.568,2.3a4.106,4.106,0,0,0-2.74,6.346Z" transform="translate(-80.117 -283.498)" fill="#75f4ff"/><path d="M162.074,353.848l25.642,36.182a4.541,4.541,0,0,0,4.259,1.84l16.674-2.053a3.533,3.533,0,0,0,2.666-5.409l-24.273-37.29a1.7,1.7,0,0,0-1.656-.738l-21.244,2.952a2.888,2.888,0,0,0-2.067,4.515Z" transform="translate(-87.594 -282.512)" fill="#c83232"/><path d="M246.216,389.708a7.748,7.748,0,0,1-4.38,1.339h-.519a21.774,21.774,0,0,1-19.541-12.171l-15.536-31.6-40.317-43.036c0-.114,6.071-2.885,12.349-5.719l2.76-1.245a17.819,17.819,0,0,1,19.624,3.372L233.637,332.2a9.217,9.217,0,0,1,2.48,4.082l13.18,44.78a7.771,7.771,0,0,1-3.082,8.642Z" transform="translate(-86.518 -294.957)" fill="#ff9191"/><path d="M143.891,395.681l-9.776,2.387-21.379-32.317A9.627,9.627,0,0,1,111.242,359l3.985-26.318c.394-.333.8-.654,1.225-.955l9.558-6.815,8.738,26.515-7.628,16.687,3.57,7.866,11.2,2.138Z" transform="translate(-99.977 -287.781)" fill="#ff7d7d"/><path d="M157.591,403.488a1.052,1.052,0,0,0-.156.073c-.052.021-.093.042-.145.062a13.276,13.276,0,0,1-16.511-4.96c-1.733-2.688-3.5-5.438-4.764-7.545a24.187,24.187,0,0,1-3.03-7.68c-2.128-10.15-7.286-36.665-9.914-50.166a20.578,20.578,0,0,1,2.948-15.11l.529-.82a15.943,15.943,0,0,1,12.018-7.191v-.01a15.725,15.725,0,0,1,7.191,1.038l2.605,1.017,10.949,63.875,4.576,12.153a12.087,12.087,0,0,1-6.3,15.264Z" transform="translate(-97.135 -291.427)" fill="#ff9191"/><path d="M154.46,403.488a1.048,1.048,0,0,0-.156.072c-.052.021-.093.042-.145.063.132-.5.269-1.011.4-1.524a21.04,21.04,0,0,0-1.517-14.821l-4.213-8.42a6.527,6.527,0,0,1-.572-1.69L135.44,310.151v-.01a15.725,15.725,0,0,1,7.191,1.038l2.605,1.017,10.949,63.875,4.576,12.153a12.087,12.087,0,0,1-6.3,15.264Z" transform="translate(-94.006 -291.427)" fill="#ff7d7d"/><path d="M246.216,389.153a7.748,7.748,0,0,1-4.38,1.339h-.519a21.772,21.772,0,0,1-19.539-12.165L206.24,346.721l-40.317-43.039c0-.114,6.071-2.885,12.349-5.719,8.1,7.92,26.556,27.131,35.649,36.63a35.56,35.56,0,0,1,7.81,12.656l7.937,22.268a33.627,33.627,0,0,0,10.776,15.055Z" transform="translate(-86.518 -294.402)" fill="#ff7d7d"/><path d="M209.241,387.3a14.08,14.08,0,0,1-10.346,13.553,14.45,14.45,0,0,1-2.439.447,14.071,14.071,0,0,1-15-10.824l-6.6-28.331L166,330.226l-24.834-18.5,6.258-6.673,3.832-4.082a18.557,18.557,0,0,1,23.641-2.874l3.857,2.5A47.479,47.479,0,0,1,199.6,331.816l4.659,25.262,4.774,27.826a14.582,14.582,0,0,1,.2,2.4Z" transform="translate(-92.601 -295.104)" fill="#ff9191"/><path d="M198.895,398.9a14.447,14.447,0,0,1-2.439.447,14.071,14.071,0,0,1-15-10.824l-6.6-28.331L166,328.264l-24.834-18.5,6.258-6.673L166.783,315.3a21.263,21.263,0,0,1,9.407,13.336l12.529,55.92a20.028,20.028,0,0,0,5.759,10.151Z" transform="translate(-92.601 -293.143)" fill="#ff7d7d"/></g><g transform="translate(501.578 13.078)"><path d="M402.661,364s0-35.093,10.681-38.345,126.647-16.19,126.647-16.19l20.106,31.025Z" transform="translate(-402.661 -293.189)" fill="#29335e" opacity="0.32"/><g transform="translate(6.849)"><path d="M470.551,309.377,454.175,326.8l-19.158,20.382-4.151,26.968A13.127,13.127,0,0,1,417.953,384.9h-.312a9.5,9.5,0,0,1-9.475-9.932l.736-30a10.768,10.768,0,0,1,2.273-6.165l22.572-28.943a18.172,18.172,0,0,1,21.689-6.538Z" transform="translate(-408.16 -295.017)" fill="#ff9191"/><path d="M488.69,302.989l-9.35,27.418-1.6,4.67-7.586,22.26-6.465,40.9a12.823,12.823,0,0,1-12.817,12.235,12.465,12.465,0,0,1-1.536-.093,12.83,12.83,0,0,1-11.291-12.712L436.272,359.3a15.235,15.235,0,0,1,1.059-6.341l17.383-44.042a16.739,16.739,0,0,1,4.12-6.4,16.453,16.453,0,0,1,16.189-3.642l7.514,2.263Z" transform="translate(-401.258 -295.976)" fill="#ff9191"/><path d="M502.773,351.047l-8.479,41.106a12.862,12.862,0,0,1-4.422,8.115,14.691,14.691,0,0,1-8.572,3.882,13.136,13.136,0,0,1-5.51-.861,14.719,14.719,0,0,1-9.248-16.491l6.042-35.222s-1.246-6.767-2.231-16.079c-.3-2.906-.592-6.05-.809-9.319-.228-3.539-.373-7.212-.384-10.855a19,19,0,0,1,13.325-18.057l1.255-.394a10.073,10.073,0,0,1,12.4,5.6,10.247,10.247,0,0,1,.737,4.082l6.073,40.353a10.909,10.909,0,0,1-.179,4.137Z" transform="translate(-393.869 -296.399)" fill="#ff9191"/><path d="M528.738,347.918l-5.936,17.03a7.962,7.962,0,0,1-7.534,5.365c-.135,0-.27,0-.4-.01a6.524,6.524,0,0,1-.882-.093c-6.748-1.111-8.5-6.455-9.122-14.413l-.207-12.163s-3.528-6.04-7.831-13.491v-.01c-6.767-11.685-15.442-26.816-15.442-27.522l12.111-3.467a12.673,12.673,0,0,1,14.321,5.656l19.9,33.178a11.8,11.8,0,0,1,1.022,9.941Z" transform="translate(-390.175 -295.845)" fill="#ff9191"/><path d="M458.37,309.469l-3.84,9.724-2.283,5.78L433.09,345.355l-4.151,26.972a13.127,13.127,0,0,1-12.913,10.751H416l2.166-3.726a17.925,17.925,0,0,0,2.107-5.582l5.78-29.338a12.752,12.752,0,0,1,3.528-6.569Z" transform="translate(-406.232 -293.189)" fill="#ff7d7d"/><path d="M479.505,384.233l1.095,13.184a14.719,14.719,0,0,1-9.248-16.49l6.04-35.222s-1.246-6.767-2.231-16.079l-7.586,22.26-6.465,40.9a12.823,12.823,0,0,1-12.817,12.235,12.465,12.465,0,0,1-1.536-.093h0a41.052,41.052,0,0,0,8.821-20.882l3.443-28.553a15.172,15.172,0,0,1,1.271-4.5l14.06-30.671.01-.01,2.4,4.66,5.327,15.462a26.113,26.113,0,0,1,1.166,12.176L479.7,377.646a29.543,29.543,0,0,0-.191,6.587Z" transform="translate(-398.678 -290.528)" fill="#ff7d7d"/><path d="M512.547,368.105a6.519,6.519,0,0,1-.882-.093c-6.748-1.111-8.5-6.455-9.122-14.413l-.207-12.163s-3.528-6.04-7.831-13.491v-.01l-3.695-20.328,14.974,22.929a27.543,27.543,0,0,1,4.23,18.775l-.946,6.951a14.2,14.2,0,0,0,1.925,9.273Z" transform="translate(-387.858 -293.647)" fill="#ff7d7d"/></g></g><path d="M26.307-50.85l38.5-13.557L39.943,10.683,1.977,14.3Z" transform="translate(757.452 98.245) rotate(54.975)" fill="#1c2340"/></g></g></g></g></g></g></g></svg>